<svg width="111" height="100" viewBox="0 0 111 100" fill="#C4CEDE"
  xmlns="http://www.w3.org/2000/svg">
  <path
    d="M77.5372 88.2045C80.7649 89.4671 83.7659 90.4301 86.4977 91.105L86.5356 91.1142C91.4254 92.3183 95.31 92.5614 98.071 92.0671C98.8505 91.9271 99.5074 91.7378 100.061 91.5091C101.413 90.9419 102.155 90.1358 102.547 89.3009C102.997 88.3424 103.205 86.9522 102.944 85.0614C102.803 84.0471 102.527 82.8866 102.08 81.5686C102.012 81.3676 101.94 81.165 101.865 80.9599C101.258 79.303 100.424 77.5112 99.3679 75.6081L99.311 75.5066C99.1592 75.2343 99.0028 74.9599 98.8418 74.6835C97.4336 72.2619 95.6823 69.6784 93.6018 66.9784L93.5797 66.9491C86.4177 57.6609 75.6818 47.4158 62.7849 38.2544C49.1141 28.5433 35.8815 22.0852 25.6374 19.3788C25.3429 19.3011 25.052 19.2266 24.7643 19.1555L24.7104 19.1426C19.8203 17.9384 15.9357 17.6954 13.1749 18.1897C12.0697 18.3876 11.2117 18.6855 10.5448 19.053C9.59537 19.5771 9.03358 20.2422 8.69891 20.9554C8.12214 22.1845 7.97327 24.0702 8.5763 26.6515C8.76548 27.4582 9.02942 28.3387 9.38045 29.2966C9.76968 30.3589 10.2515 31.4749 10.8242 32.6386C10.9061 32.8047 10.9901 32.9726 11.0763 33.1419L11.2261 33.4338C11.4009 33.7713 11.5828 34.1121 11.7717 34.456C13.2757 37.1938 15.2398 40.1589 17.6439 43.2789L17.6584 43.2979C20.2424 46.6497 23.3086 50.1476 26.8035 53.6958C27.5971 54.5015 28.3343 55.243 29.019 55.9256L29.1424 54.345C29.6574 47.7497 29.9148 44.4517 32.1513 43.2763C34.3878 42.101 37.1221 43.8261 42.5907 47.2769L44.0055 48.1697C45.5598 49.1502 46.3367 49.6404 47.2316 49.763C48.1265 49.8856 49.0382 49.6266 50.8613 49.1081L52.5213 48.6369C58.9377 46.8133 62.1459 45.902 63.8629 47.6184C65.5798 49.3353 64.668 52.5435 62.8449 58.9599L62.3731 60.6199C61.8546 62.443 61.5957 63.3548 61.7182 64.2496C61.8408 65.1445 62.3311 65.922 63.3116 67.4758L64.2044 68.8907C67.6552 74.3594 69.3803 77.0937 68.2049 79.3301C67.0295 81.5666 63.7316 81.824 57.1362 82.3389L55.43 82.4722C53.5557 82.6184 52.6188 82.6917 51.7993 83.1225C50.9798 83.5527 50.3716 84.2922 49.1541 85.7707L48.0459 87.1168C43.762 92.3199 41.6201 94.9214 39.1769 94.5865C36.7337 94.2522 35.6072 91.203 33.3542 85.105L32.7713 83.5276C32.1311 81.7948 31.811 80.9281 31.1821 80.2994C30.5532 79.6702 29.6868 79.3501 27.9539 78.7101L26.3762 78.1271C20.2782 75.8743 17.2291 74.7476 16.8945 72.3045C16.56 69.8614 19.1615 67.7194 24.3646 63.4358L25.0785 62.8476C23.975 61.765 22.7294 60.5209 21.3235 59.0938C17.0579 54.7635 13.3051 50.4102 10.2047 46.1845C9.57722 45.3297 8.97645 44.4794 8.40358 43.6363C7.79322 42.7379 7.21455 41.8466 6.66891 40.9646C6.38476 40.5051 6.10958 40.0481 5.84358 39.5936C5.32568 38.7091 4.84256 37.8345 4.39558 36.9715C4.22599 36.6441 4.0603 36.3158 3.89881 35.9867C3.22343 34.6106 2.64051 33.2605 2.15779 31.9432C1.73189 30.7809 1.37128 29.608 1.09584 28.4378C0.192869 24.6107 0.22292 20.9105 1.73517 17.6877C3.00702 14.9773 5.08276 13.1186 7.57655 11.9403C9.01383 11.2612 10.59 10.808 12.2312 10.5481C16.6424 9.84931 21.9295 10.4431 27.6022 11.9417C38.9996 14.9528 53.0716 21.9189 67.2393 31.9833C81.4228 42.0589 93.2921 53.5266 101.004 64.0209C103.556 67.4938 105.697 70.9204 107.316 74.2071C107.834 75.2573 108.298 76.2937 108.704 77.3122C108.944 77.9132 109.165 78.5081 109.364 79.0963C110.935 83.723 111.416 88.5081 109.51 92.5686C108.114 95.5445 105.785 97.4706 102.994 98.6147C101.868 99.0799 100.668 99.4163 99.4264 99.6388C98.3705 99.8281 97.2623 99.9404 96.1105 99.9814C95.932 99.9881 95.7531 99.9927 95.5741 99.9958C94.8259 100.009 94.0567 99.9922 93.2674 99.9476C91.7269 99.8614 90.1115 99.6676 88.4336 99.3747C84.2054 98.6358 79.5777 97.263 74.7341 95.3676C72.7562 94.5937 71.7798 92.363 72.5541 90.3845C73.328 88.4065 75.5587 87.4301 77.5372 88.2045Z"
    fill="inherit" />
  <path fill-rule="evenodd" clip-rule="evenodd"
    d="M94.932 0.814719C96.6063 2.1219 96.9038 4.53892 95.5966 6.21323L95.0258 6.94456C95.6607 10.3189 97.2084 13.441 99.4914 15.9462C100.922 17.5162 100.809 19.9489 99.2391 21.3796C97.6689 22.8103 95.2361 22.6974 93.8053 21.1273C91.4956 18.5925 89.7243 15.6288 88.5699 12.4231C88.0345 12.7431 87.4925 13.0346 86.9304 13.3002C86.3161 13.5904 85.694 13.842 85.051 14.0666C86.7176 17.0988 87.7781 20.4592 88.1509 23.9513C88.3761 26.0635 86.8463 27.9583 84.734 28.1836C82.6217 28.4088 80.7269 26.8792 80.5017 24.7669C80.1381 21.3572 78.852 18.1433 76.8171 15.4808L76.0063 15.4535C73.8833 15.382 72.2202 13.6031 72.2915 11.4801C72.3633 9.35717 74.1417 7.6941 76.2648 7.76553L78.3535 7.83579C81.0515 7.30317 82.4438 6.91235 83.6443 6.34517C84.8499 5.77548 86.0525 4.93759 88.2135 3.16979L89.5335 1.47944C90.8407 -0.194869 93.2576 -0.49251 94.932 0.814719Z"
    fill="inherit" />
</svg>