<svg width="128" height="128" viewBox="0 0 128 128" fill="none" xmlns="http://www.w3.org/2000/svg">
  <path d="M128 0H0V127.996H128V0Z" fill="#A85822" />
  <path
    d="M69.7937 18.0935C63.3416 18.0978 57.1552 20.6641 52.5945 25.228C48.0339 29.7919 45.4723 35.9798 45.4728 42.4317C45.4784 42.5152 45.4847 42.5987 45.4912 42.6821C31.4015 35.3362 15.8754 31.1613 0.00146484 30.4504V34.4978C22.2633 35.6517 43.4233 45.7116 59.6587 62.8595C75.894 80.0075 86.1337 103.112 88.5274 128H104.037C101.628 104.863 91.8745 83.1042 76.2058 65.9099C81.3553 64.5041 85.8997 61.4443 89.1391 57.2017C92.3786 52.9592 94.1333 47.7692 94.133 42.4314C94.1333 39.2352 93.5036 36.0703 92.2805 33.1174C91.0575 30.1645 89.2647 27.4813 87.0046 25.2213C84.7445 22.9612 82.0618 21.1685 79.1088 19.9454C76.1558 18.7224 72.9899 18.0933 69.7937 18.0935Z"
    fill="white" />
</svg>