<svg width="813" height="128" viewBox="0 0 813 128" fill="none" xmlns="http://www.w3.org/2000/svg">
  <path
    d="M167.862 94.9236C167.34 96.5764 167.47 97.7942 168.253 98.5771C169.123 99.3599 170.341 99.8819 171.907 100.143C173.559 100.404 175.212 100.578 176.865 100.665C177.3 101.013 177.517 101.796 177.517 103.013C177.517 104.231 177.3 105.058 176.865 105.492C174.429 105.406 171.863 105.319 169.167 105.232C166.557 105.232 163.991 105.232 161.468 105.232C159.729 105.232 157.815 105.232 155.727 105.232C153.639 105.319 151.682 105.406 149.856 105.492C149.508 105.058 149.334 104.231 149.334 103.013C149.334 101.796 149.508 101.013 149.856 100.665C151.769 100.491 153.379 100.23 154.683 99.8818C155.988 99.5339 157.119 98.7945 158.076 97.6637C159.12 96.4459 160.12 94.5757 161.077 92.0531L186.781 26.161C187.651 26.161 188.999 25.9 190.826 25.3781C192.653 24.8563 194.045 24.2908 195.001 23.6819L221.88 94.0103C222.663 96.011 223.359 97.4463 223.968 98.3161C224.664 99.186 225.49 99.7514 226.447 100.012C227.491 100.273 228.839 100.491 230.492 100.665C230.927 101.013 231.144 101.796 231.144 103.013C231.144 104.231 230.927 105.058 230.492 105.492C228.578 105.405 226.491 105.319 224.229 105.232C222.054 105.232 219.619 105.232 216.922 105.232C214.399 105.232 211.529 105.232 208.31 105.232C205.092 105.319 202.265 105.405 199.829 105.492C199.481 105.058 199.307 104.231 199.307 103.013C199.307 101.796 199.481 101.013 199.829 100.665C202.961 100.491 205.657 100.099 207.919 99.4904C210.181 98.8815 210.963 97.6637 210.268 95.837L202.569 75.3517H178.3C176.734 75.3517 175.647 75.4822 175.038 75.7432C174.516 75.9172 174.081 76.4826 173.733 77.4394L167.862 94.9236ZM180.649 70.1326H200.612L188.347 36.4689H188.086L177.387 68.4363C177.213 69.0452 177.343 69.4802 177.778 69.7411C178.3 70.0021 179.257 70.1326 180.649 70.1326ZM240.017 86.4425C240.626 85.8336 241.496 85.3987 242.626 85.1377C243.757 84.7897 244.757 84.7028 245.627 84.8767C246.062 86.7034 246.976 89.0085 248.367 91.7921C249.846 94.4887 251.542 96.6633 253.456 98.3161C254.674 99.2729 256.675 100.099 259.458 100.795C262.242 101.404 265.504 101.709 269.244 101.709C275.768 101.709 280.857 100.578 284.51 98.3161C288.164 96.0544 289.99 93.1404 289.99 89.5739C289.99 87.4863 289.251 85.7466 287.772 84.3548C286.38 82.876 283.901 81.6147 280.335 80.5709C276.855 79.527 272.028 78.4832 265.852 77.4394C257.153 75.9606 251.021 73.8294 247.454 71.0459C243.975 68.1753 242.235 63.8695 242.235 58.1284C242.235 54.649 243.583 51.6479 246.28 49.1253C249.063 46.6027 252.63 44.689 256.979 43.3842C261.328 41.9925 265.852 41.2966 270.549 41.2966C275.159 41.2966 279.508 41.775 283.597 42.7319C287.772 43.6887 290.991 44.5586 293.252 45.3414C293.774 47.4291 294.253 49.7343 294.688 52.2568C295.123 54.7795 295.514 57.563 295.862 60.6075C295.427 61.0425 294.775 61.4339 293.905 61.7819C293.122 62.1298 292.208 62.2603 291.165 62.1733C289.338 59.0418 287.468 56.3017 285.554 53.9531C283.727 51.5175 281.596 49.6038 279.161 48.212C276.812 46.8202 273.941 46.1243 270.549 46.1243C264.547 46.1243 259.937 47.0812 256.718 48.9949C253.587 50.9086 252.021 53.2572 252.021 56.0408C252.021 59.6942 254.109 62.3473 258.284 64C262.459 65.5658 268.113 66.9141 275.246 68.0449C282.118 69.1757 287.381 70.524 291.034 72.0897C294.688 73.6555 297.21 75.6127 298.602 77.9613C299.994 80.223 300.69 83.0065 300.69 86.312C300.69 91.2702 299.298 95.2281 296.514 98.1856C293.731 101.143 289.99 103.274 285.293 104.579C280.596 105.884 275.333 106.536 269.505 106.536C265.852 106.536 262.459 106.362 259.328 106.014C256.283 105.666 254.152 105.318 252.934 104.971C252.412 104.797 251.76 104.71 250.977 104.71C250.194 104.623 249.542 104.579 249.02 104.579C248.672 104.579 248.019 104.623 247.063 104.71C246.193 104.797 245.366 104.927 244.584 105.101C243.453 102.405 242.452 99.534 241.582 96.4895C240.8 93.3579 240.278 90.0089 240.017 86.4425ZM308.649 47.8206H321.566C321.566 40.6007 321.479 35.3816 321.305 32.1631C321.218 28.9446 321.175 26.9439 321.175 26.161C321.175 25.4651 321.784 24.9867 323.001 24.7258C324.306 24.4648 325.524 24.1168 326.655 23.6819C327.699 23.247 328.786 22.7686 329.917 22.2466C331.135 21.6377 331.961 21.3333 332.396 21.3333C333.092 21.3333 333.44 21.7247 333.44 22.5076C333.44 22.5076 333.353 23.7254 333.179 26.161C333.005 28.5966 332.918 31.9456 332.918 36.2079V47.8206H361.623C362.319 47.8206 362.667 48.0815 362.667 48.6034V51.8654C362.667 52.4743 362.319 52.9092 361.623 53.1702C360.927 53.4312 360.232 53.5617 359.536 53.5617H332.918V80.8319C332.918 85.9641 333.57 89.8349 334.875 92.4445C336.18 94.9671 337.833 96.6634 339.833 97.5332C341.921 98.4031 344.052 98.838 346.227 98.838C349.097 98.838 352.272 98.2291 355.752 97.0113C359.231 95.7935 362.754 94.4452 366.321 92.9664C367.017 93.0534 367.538 93.5318 367.886 94.4017C368.321 95.1846 368.582 95.924 368.669 96.6199C363.363 99.5774 358.492 101.97 354.056 103.796C349.619 105.623 345.487 106.536 341.66 106.536C337.833 106.536 334.397 105.927 331.352 104.71C328.308 103.492 325.915 101.491 324.176 98.7075C322.436 95.837 321.566 91.9661 321.566 87.0949V53.5617H306.952C306.518 53.5617 306.3 53.3007 306.3 52.7789V50.4302C306.3 49.9083 306.474 49.3429 306.822 48.7339C307.17 48.125 307.779 47.8206 308.649 47.8206ZM406.769 52.2569C406.769 54.4316 406.856 55.8233 407.03 56.4322C407.204 57.0411 407.552 57.0411 408.074 56.4322C411.031 53.3877 413.859 50.7346 416.555 48.473C419.252 46.2114 422.383 44.4716 425.95 43.2538C429.516 41.949 433.909 41.2966 439.128 41.2966C442.086 41.2966 444.043 42.0795 445 43.6453C446.043 45.211 446.565 46.6463 446.565 47.9511C446.565 49.6908 445.956 51.3435 444.739 52.9093C443.608 54.3881 442.173 55.1274 440.433 55.1274C439.128 55.1274 437.954 54.736 436.91 53.9531C435.953 53.1703 435.127 52.3874 434.431 51.6045C433.996 51.0826 433.169 50.5172 431.952 49.9083C430.734 49.2124 429.646 48.8644 428.69 48.8644C426.167 48.8644 423.297 50.1257 420.078 52.6483C416.947 55.084 413.554 58.3459 409.901 62.4343C408.944 63.4781 408.161 64.6959 407.552 66.0877C407.03 67.4795 406.769 69.0452 406.769 70.785V88.7911C406.769 92.0096 406.943 94.3148 407.291 95.7065C407.726 97.0983 408.509 98.1421 409.64 98.838C410.075 99.012 411.118 99.2294 412.771 99.4904C414.424 99.6644 416.338 99.8384 418.512 100.012C420.687 100.186 422.775 100.36 424.775 100.534C426.863 100.621 428.472 100.665 429.603 100.665C430.038 101.013 430.255 101.796 430.255 103.013C430.255 104.231 430.038 105.058 429.603 105.492C428.211 105.492 426.298 105.449 423.862 105.362C421.426 105.362 418.817 105.318 416.033 105.232C413.337 105.232 410.77 105.232 408.335 105.232C405.899 105.232 404.029 105.232 402.724 105.232C401.419 105.232 399.549 105.232 397.114 105.232C394.678 105.232 392.068 105.232 389.285 105.232C386.501 105.318 383.892 105.362 381.456 105.362C379.021 105.449 377.107 105.492 375.715 105.492C375.367 105.058 375.193 104.231 375.193 103.013C375.193 101.796 375.367 101.013 375.715 100.665C377.542 100.578 379.716 100.447 382.239 100.273C384.762 100.099 387.067 99.8818 389.154 99.6209C391.242 99.3599 392.503 99.099 392.938 98.838C393.895 98.1421 394.548 97.0983 394.895 95.7065C395.243 94.2278 395.417 91.9226 395.417 88.7911V57.2151C395.417 55.0405 395.287 53.4747 395.026 52.5178C394.765 51.474 394.2 50.6911 393.33 50.1692C392.895 49.9082 391.764 49.6473 389.937 49.3864C388.111 49.0384 386.153 48.7775 384.066 48.6036C382.065 48.4296 380.543 48.3426 379.499 48.3426C379.412 47.9077 379.325 47.2988 379.238 46.5159C379.151 45.6461 379.151 45.0372 379.238 44.6892C383.761 44.0803 388.328 43.4279 392.938 42.732C397.549 42.0361 401.289 41.4272 404.16 40.9053C404.942 40.9053 405.464 41.2533 405.725 41.9491C406.073 42.558 406.334 43.5584 406.508 44.9502C406.682 46.255 406.769 48.6905 406.769 52.2569ZM453.394 75.2213C453.394 70.611 454.177 66.3052 455.742 62.3038C457.308 58.2154 459.526 54.6055 462.397 51.474C465.354 48.3425 468.921 45.8634 473.096 44.0367C477.358 42.21 482.143 41.2966 487.449 41.2966C493.625 41.2966 498.844 42.297 503.106 44.2976C507.369 46.2113 510.848 48.7774 513.545 51.9959C516.241 55.1274 518.198 58.6069 519.416 62.4343C520.634 66.2617 521.243 70.0891 521.243 73.9165C521.243 78.3528 520.417 82.7456 518.764 87.0949C517.111 91.4442 514.458 95.2281 510.805 98.4466C508.108 100.882 504.759 102.839 500.758 104.318C496.843 105.797 492.32 106.536 487.188 106.536C481.447 106.536 476.445 105.623 472.183 103.796C468.007 101.97 464.528 99.5339 461.744 96.4894C458.961 93.4449 456.873 90.0959 455.481 86.4425C454.09 82.7021 453.394 78.9617 453.394 75.2213ZM484.839 46.6463C479.794 46.6463 475.88 47.8641 473.096 50.2997C470.4 52.7353 468.529 55.8668 467.485 59.6942C466.442 63.5216 465.92 67.61 465.92 71.9593C465.92 74.8298 466.311 77.9613 467.094 81.3538C467.877 84.6593 469.182 87.8343 471.008 90.8788C472.835 93.9233 475.271 96.4024 478.315 98.3161C481.36 100.23 485.1 101.187 489.537 101.187C491.624 101.187 493.755 100.882 495.93 100.273C498.192 99.6644 500.279 98.5771 502.193 97.0113C504.107 95.3586 505.672 93.0969 506.89 90.2264C508.108 87.2689 508.717 83.4415 508.717 78.7442C508.717 68.0449 506.586 60.0422 502.323 54.736C498.148 49.3429 492.32 46.6463 484.839 46.6463ZM575.914 49.2559L585.961 81.0928C586.657 83.5284 587.135 84.5723 587.396 84.2243C587.744 83.8764 588.179 82.6151 588.701 80.4404L597.312 41.949C598.095 38.5566 598.443 36.0774 598.356 34.5117C598.269 32.859 597.443 31.7281 595.877 31.1192C594.311 30.5103 591.615 30.0754 587.787 29.8144C587.439 29.2926 587.265 28.5097 587.265 27.4658C587.265 26.335 587.439 25.5086 587.787 24.9867C590.223 25.0737 592.702 25.1606 595.225 25.2476C597.747 25.2476 600.226 25.2476 602.662 25.2476C605.011 25.2476 606.707 25.2476 607.751 25.2476C608.795 25.1606 610.143 25.0737 611.796 24.9867C612.231 25.5086 612.448 26.335 612.448 27.4658C612.448 28.5097 612.231 29.2925 611.796 29.8144C609.969 30.0754 608.534 30.5103 607.49 31.1192C606.533 31.6411 605.75 32.7719 605.141 34.5117C604.532 36.1644 603.793 38.861 602.923 42.6014L589.092 103.274C588.831 104.579 588.396 105.449 587.787 105.884C587.266 106.406 586.7 106.667 586.091 106.667C585.047 106.667 584.177 105.579 583.482 103.405L569.52 62.6952L557.647 103.144C557.299 104.536 556.777 105.449 556.081 105.884C555.472 106.406 554.863 106.667 554.254 106.667C553.645 106.667 552.993 106.406 552.297 105.884C551.601 105.449 551.123 104.623 550.862 103.405L537.553 41.8185C536.77 38.2521 536.118 35.6425 535.596 33.9897C535.074 32.337 534.378 31.2932 533.508 30.8582C532.725 30.3363 531.464 29.9884 529.724 29.8144C529.376 29.2925 529.202 28.5096 529.202 27.4658C529.202 26.335 529.376 25.5086 529.724 24.9867C531.464 25.0736 533.204 25.1606 534.943 25.2476C536.683 25.2476 538.771 25.2476 541.206 25.2476C543.555 25.2476 545.99 25.2476 548.513 25.2476C551.123 25.1606 553.645 25.0736 556.081 24.9867C556.516 25.5086 556.733 26.3349 556.733 27.4658C556.733 28.5096 556.516 29.2925 556.081 29.8144C553.384 29.9883 551.471 30.3798 550.34 30.9887C549.209 31.5106 548.644 32.5979 548.644 34.2507C548.644 35.9034 548.992 38.426 549.687 41.8185L556.864 76.2651C557.647 80.0055 558.256 81.8757 558.69 81.8757C559.212 81.8757 559.995 79.875 561.039 75.8736L567.563 51.213L575.914 49.2559ZM654.484 98.0552H654.093L650.439 100.534C647.917 102.1 645.655 103.318 643.654 104.188C641.654 105.058 639.653 105.666 637.652 106.014C635.738 106.362 633.433 106.536 630.737 106.536C624.735 106.536 619.733 105.406 615.732 103.144C611.73 100.795 609.73 96.8373 609.73 91.2702C609.73 86.399 611.991 82.1802 616.514 78.6137C621.125 74.9603 628.084 72.3507 637.391 70.785L654.354 67.9144C654.527 67.8274 654.788 67.6535 655.136 67.3925C655.484 67.0445 655.658 66.6096 655.658 66.0877C655.658 60.7816 654.962 56.7367 653.571 53.9531C652.179 51.0826 650.396 49.1254 648.221 48.0815C646.046 47.0377 643.785 46.5158 641.436 46.5158C639.348 46.5158 637.174 46.7333 634.912 47.1682C632.737 47.5161 630.867 48.125 629.301 48.9949C627.823 49.8647 627.083 51.0826 627.083 52.6483C627.083 54.0401 627.17 54.9969 627.344 55.5189C627.692 56.2147 627.866 57.1281 627.866 58.2589C627.866 59.1288 627.17 60.0421 625.778 60.999C624.387 61.9558 622.69 62.4343 620.69 62.4343C619.037 62.4343 617.645 62.0428 616.514 61.2599C615.384 60.3901 614.818 59.0853 614.818 57.3456C614.818 55.3449 615.601 53.4312 617.167 51.6045C618.82 49.6908 620.951 47.951 623.56 46.3853C626.257 44.8195 629.258 43.6017 632.563 42.7319C635.956 41.775 639.348 41.2966 642.741 41.2966C645.785 41.2966 648.786 41.6445 651.744 42.3404C654.788 42.9493 657.485 44.1237 659.834 45.8634C662.182 47.6031 664.009 50.0822 665.314 53.3007C666.618 56.5192 667.097 60.6945 666.749 65.8267L665.836 86.8339C665.661 90.0524 666.14 92.9229 667.271 95.4455C668.402 97.9682 670.576 99.2294 673.795 99.2294C675.535 99.2294 676.665 98.838 677.187 98.0551C677.796 97.2722 678.362 96.8808 678.883 96.8808C679.318 96.8808 679.797 97.1853 680.319 97.7942C680.841 98.3161 681.102 98.838 681.102 99.3599C681.102 99.8818 680.493 100.708 679.275 101.839C678.144 102.97 676.404 104.057 674.056 105.101C671.794 106.058 669.011 106.536 665.705 106.536C662.748 106.536 660.486 106.145 658.92 105.362C657.354 104.579 656.267 103.535 655.658 102.23C655.136 100.926 654.745 99.5339 654.484 98.0552ZM655.397 72.6117L639.74 75.6127C634.173 76.6565 629.91 78.5267 626.953 81.2233C624.082 83.8329 622.647 86.9644 622.647 90.6178C622.647 92.0966 623.038 93.6189 623.821 95.1846C624.604 96.7504 625.866 98.0551 627.605 99.099C629.432 100.143 631.781 100.665 634.651 100.665C636.304 100.665 638.174 100.317 640.262 99.6209C642.349 98.925 644.437 98.0986 646.525 97.1418C648.612 96.098 650.396 95.0976 651.874 94.1408C652.57 93.7058 653.136 93.1839 653.571 92.575C654.093 91.8791 654.397 91.0528 654.484 90.0959L655.397 72.6117ZM683.668 47.8206H696.585C696.585 40.6007 696.498 35.3816 696.324 32.1631C696.237 28.9446 696.193 26.9439 696.193 26.161C696.193 25.4651 696.802 24.9867 698.02 24.7258C699.325 24.4648 700.543 24.1168 701.673 23.6819C702.717 23.247 703.805 22.7686 704.936 22.2466C706.153 21.6377 706.98 21.3333 707.415 21.3333C708.111 21.3333 708.458 21.7247 708.458 22.5076C708.458 22.5076 708.371 23.7254 708.197 26.161C708.023 28.5966 707.936 31.9456 707.936 36.2079V47.8206H736.641C737.337 47.8206 737.685 48.0815 737.685 48.6034V51.8654C737.685 52.4743 737.337 52.9092 736.641 53.1702C735.945 53.4312 735.25 53.5617 734.554 53.5617H707.936V80.8319C707.936 85.9641 708.588 89.8349 709.893 92.4445C711.198 94.9671 712.851 96.6634 714.851 97.5332C716.939 98.4031 719.07 98.838 721.245 98.838C724.115 98.838 727.29 98.2291 730.77 97.0113C734.249 95.7935 737.772 94.4452 741.339 92.9664C742.035 93.0534 742.556 93.5318 742.904 94.4017C743.339 95.1846 743.6 95.924 743.687 96.6199C738.381 99.5774 733.51 101.97 729.074 103.796C724.637 105.623 720.505 106.536 716.678 106.536C712.851 106.536 709.415 105.927 706.37 104.71C703.326 103.492 700.934 101.491 699.194 98.7075C697.454 95.837 696.584 91.9661 696.584 87.0949V53.5617H681.971C681.536 53.5617 681.318 53.3007 681.318 52.7789V50.4302C681.318 49.9083 681.492 49.3429 681.84 48.7339C682.188 48.125 682.798 47.8206 683.668 47.8206ZM752.169 47.8206H765.087C765.087 40.6007 765 35.3816 764.826 32.1631C764.738 28.9446 764.695 26.9439 764.695 26.161C764.695 25.4651 765.304 24.9867 766.522 24.7258C767.826 24.4648 769.044 24.1168 770.175 23.6819C771.219 23.247 772.306 22.7686 773.437 22.2466C774.655 21.6377 775.481 21.3333 775.916 21.3333C776.612 21.3333 776.96 21.7247 776.96 22.5076C776.96 22.5076 776.873 23.7254 776.699 26.161C776.525 28.5966 776.438 31.9456 776.438 36.2079V47.8206H805.143C805.839 47.8206 806.187 48.0815 806.187 48.6034V51.8654C806.187 52.4743 805.839 52.9092 805.143 53.1702C804.447 53.4312 803.751 53.5617 803.055 53.5617H776.438V80.8319C776.438 85.9641 777.09 89.8349 778.395 92.4445C779.7 94.9671 781.352 96.6634 783.353 97.5332C785.441 98.4031 787.572 98.838 789.746 98.838C792.617 98.838 795.792 98.2291 799.271 97.0113C802.751 95.7935 806.274 94.4452 809.84 92.9664C810.536 93.0534 811.058 93.5318 811.406 94.4017C811.841 95.1846 812.102 95.924 812.189 96.6199C806.883 99.5774 802.012 101.97 797.575 103.796C793.139 105.623 789.007 106.536 785.18 106.536C781.352 106.536 777.916 105.927 774.872 104.71C771.827 103.492 769.435 101.491 767.695 98.7075C765.956 95.837 765.086 91.9661 765.086 87.0949V53.5617H750.472C750.037 53.5617 749.82 53.3007 749.82 52.7789V50.4302C749.82 49.9083 749.994 49.3429 750.342 48.7339C750.689 48.125 751.299 47.8206 752.169 47.8206Z"
    fill="#A85822" />
  <path d="M128 0H0V127.996H128V0Z" fill="#A85822" />
  <path
    d="M69.7937 18.0935C63.3416 18.0978 57.1552 20.6641 52.5945 25.228C48.0339 29.7919 45.4723 35.9798 45.4728 42.4317C45.4784 42.5152 45.4847 42.5987 45.4912 42.6821C31.4015 35.3362 15.8754 31.1613 0.00146484 30.4504V34.4978C22.2633 35.6517 43.4233 45.7116 59.6587 62.8595C75.894 80.0075 86.1337 103.112 88.5274 128H104.037C101.628 104.863 91.8745 83.1042 76.2058 65.9099C81.3553 64.5041 85.8997 61.4443 89.1391 57.2017C92.3786 52.9592 94.1333 47.7692 94.133 42.4314C94.1333 39.2352 93.5036 36.0703 92.2805 33.1174C91.0575 30.1645 89.2647 27.4813 87.0046 25.2213C84.7445 22.9612 82.0618 21.1685 79.1088 19.9454C76.1558 18.7224 72.9899 18.0933 69.7937 18.0935Z"
    fill="white" />
</svg>