<svg width="139" height="244" viewBox="0 0 139 244" fill="none" xmlns="http://www.w3.org/2000/svg">
  <rect width="139" height="243.25" fill="#A85822" />
  <path
    d="M79.9766 19.5469C83.4018 19.5466 86.7886 20.236 89.9531 21.5518C93.1176 22.8675 95.9931 24.7962 98.415 27.2275C100.837 29.659 102.759 32.5458 104.069 35.7227C105.38 38.8995 106.054 42.3046 106.054 45.7432C106.052 51.5284 104.142 57.1503 100.621 61.7305C97.1003 66.3106 92.167 69.5911 86.5928 71.0596C106.258 92.5938 117.202 120.726 117.281 149.939C117.282 165.331 114.262 180.571 108.396 194.791C102.529 209.011 93.929 221.931 83.0879 232.814C79.3495 236.567 75.3696 240.052 71.1787 243.25H56.7793C61.9723 239.271 66.8348 234.742 71.2959 229.712C80.5882 219.235 87.9599 206.797 92.9893 193.107C98.0186 179.418 100.608 164.745 100.608 149.927C100.608 135.109 98.0185 120.437 92.9893 106.747C87.9599 93.0575 80.5883 80.6187 71.2959 70.1416C62.0036 59.6647 50.9726 51.3539 38.832 45.6846C26.6915 40.0152 13.6794 37.0982 0.539062 37.0996C0.359458 37.0996 0.179503 37.1014 0 37.1025V32.7412C0.177695 32.7404 0.355424 32.7383 0.533203 32.7383C19.119 32.816 37.4185 37.347 53.9082 45.9551C53.9033 45.8806 53.8978 45.806 53.8936 45.7314C53.8933 42.293 54.5683 38.8878 55.8789 35.7109C57.1895 32.5342 59.1104 29.6472 61.5322 27.2158C63.9543 24.7844 66.8305 22.8558 69.9951 21.54C73.1596 20.2243 76.5514 19.5467 79.9766 19.5469Z"
    fill="#EAE4DC" />
</svg>