<svg width="663" height="86" viewBox="0 0 663 86" fill="none" xmlns="http://www.w3.org/2000/svg">
  <path
    d="M18.5281 73.5904C18.0061 75.2431 18.1366 76.4609 18.9195 77.2438C19.7894 78.0267 21.0072 78.5486 22.5729 78.8095C24.2257 79.0705 25.8784 79.2445 27.5312 79.3315C27.9661 79.6794 28.1835 80.4623 28.1835 81.6801C28.1835 82.8979 27.9661 83.7243 27.5312 84.1592C25.0955 84.0722 22.5294 83.9853 19.8329 83.8983C17.2233 83.8983 14.6572 83.8983 12.1346 83.8983C10.3949 83.8983 8.48116 83.8983 6.39349 83.8983C4.30582 83.9853 2.34864 84.0722 0.52193 84.1592C0.173985 83.7243 0 82.8979 0 81.6801C0 80.4623 0.173985 79.6794 0.52193 79.3315C2.43563 79.1575 4.04486 78.8965 5.34966 78.5485C6.65445 78.2006 7.78528 77.4612 8.74213 76.3304C9.78596 75.1126 10.7863 73.2424 11.7431 70.7198L37.4476 4.82769C38.3175 4.82769 39.6657 4.56675 41.4924 4.04486C43.3191 3.52297 44.7109 2.95755 45.6678 2.34863L72.5465 72.677C73.3294 74.6777 74.0253 76.113 74.6342 76.9828C75.3301 77.8527 76.1565 78.4181 77.1133 78.6791C78.1572 78.94 79.5055 79.1575 81.1582 79.3314C81.5931 79.6794 81.8106 80.4623 81.8106 81.6801C81.8106 82.8979 81.5931 83.7243 81.1582 84.1592C79.2445 84.0722 77.1568 83.9852 74.8952 83.8983C72.7205 83.8983 70.2849 83.8983 67.5883 83.8983C65.0657 83.8983 62.1952 83.8983 58.9767 83.8983C55.7582 83.9852 52.9312 84.0722 50.4955 84.1592C50.1476 83.7243 49.9736 82.8979 49.9736 81.6801C49.9736 80.4623 50.1476 79.6794 50.4955 79.3314C53.627 79.1574 56.3236 78.766 58.5853 78.1571C60.8469 77.5482 61.6298 76.3304 60.9339 74.5037L53.2356 54.0185H28.9664C27.4007 54.0185 26.3133 54.149 25.7044 54.4099C25.1825 54.5839 24.7476 55.1493 24.3996 56.1062L18.5281 73.5904ZM31.315 48.7993H51.2784L39.0133 15.1356H38.7523L28.053 47.1031C27.879 47.712 28.0095 48.1469 28.4445 48.4078C28.9663 48.6688 29.9232 48.7993 31.315 48.7993ZM90.6831 65.1092C91.292 64.5003 92.1618 64.0654 93.2927 63.8044C94.4235 63.4565 95.4238 63.3695 96.2937 63.5434C96.7286 65.3701 97.642 67.6753 99.0337 70.4588C100.513 73.1554 102.209 75.3301 104.122 76.9828C105.34 77.9396 107.341 78.766 110.124 79.4619C112.908 80.0708 116.17 80.3752 119.91 80.3752C126.434 80.3752 131.523 79.2444 135.177 76.9828C138.83 74.7211 140.657 71.8071 140.657 68.2407C140.657 66.153 139.917 64.4133 138.439 63.0215C137.047 61.5427 134.568 60.2814 131.001 59.2376C127.522 58.1938 122.694 57.1499 116.518 56.1061C107.819 54.6273 101.687 52.4962 98.1204 49.7126C94.6409 46.8421 92.9012 42.5362 92.9012 36.7951C92.9012 33.3157 94.2495 30.3147 96.9461 27.7921C99.7296 25.2695 103.296 23.3558 107.645 22.051C111.995 20.6592 116.518 19.9633 121.215 19.9633C125.826 19.9633 130.175 20.4417 134.263 21.3986C138.439 22.3554 141.657 23.2253 143.919 24.0082C144.441 26.0958 144.919 28.401 145.354 30.9236C145.789 33.4462 146.18 36.2297 146.528 39.2743C146.093 39.7092 145.441 40.1006 144.571 40.4486C143.788 40.7965 142.875 40.927 141.831 40.84C140.004 37.7085 138.134 34.9685 136.22 32.6198C134.394 30.1842 132.263 28.2705 129.827 26.8787C127.478 25.487 124.608 24.7911 121.215 24.7911C115.213 24.7911 110.603 25.7479 107.384 27.6616C104.253 29.5753 102.687 31.9239 102.687 34.7075C102.687 38.3609 104.775 41.014 108.95 42.6667C113.126 44.2325 118.78 45.5808 125.912 46.7116C132.784 47.8424 138.047 49.1907 141.701 50.7565C145.354 52.3222 147.877 54.2794 149.268 56.628C150.66 58.8897 151.356 61.6732 151.356 64.9787C151.356 69.9369 149.964 73.8948 147.181 76.8523C144.397 79.8099 140.657 81.941 135.959 83.2458C131.262 84.5506 125.999 85.203 120.171 85.203C116.518 85.203 113.126 85.029 109.994 84.6811C106.949 84.3332 104.818 83.9852 103.601 83.6373C103.079 83.4633 102.426 83.3764 101.643 83.3764C100.86 83.2894 100.208 83.2459 99.6861 83.2459C99.3382 83.2459 98.6858 83.2894 97.729 83.3764C96.8591 83.4633 96.0327 83.5938 95.2498 83.7678C94.119 81.0712 93.1187 78.2007 92.2488 75.1562C91.4659 72.0247 90.944 68.6756 90.6831 65.1092ZM159.315 26.4873H172.233C172.233 19.2675 172.146 14.0483 171.972 10.8298C171.885 7.6113 171.841 5.61062 171.841 4.82774C171.841 4.13185 172.45 3.65343 173.668 3.39247C174.973 3.1315 176.19 2.78354 177.321 2.34863C178.365 1.91371 179.452 1.43529 180.583 0.913355C181.801 0.304454 182.627 0 183.062 0C183.758 0 184.106 0.391431 184.106 1.1743C184.106 1.1743 184.019 2.39213 183.845 4.82774C183.671 7.26336 183.584 10.6123 183.584 14.8746V26.4873H212.29C212.986 26.4873 213.334 26.7483 213.334 27.2701V30.5321C213.334 31.141 212.986 31.576 212.29 31.8369C211.594 32.0979 210.898 32.2284 210.202 32.2284H183.584V59.4986C183.584 64.6308 184.237 68.5016 185.541 71.1112C186.846 73.6338 188.499 75.3301 190.5 76.1999C192.587 77.0698 194.718 77.5047 196.893 77.5047C199.764 77.5047 202.939 76.8958 206.418 75.678C209.898 74.4602 213.421 73.1119 216.987 71.6331C217.683 71.7201 218.205 72.1986 218.553 73.0684C218.988 73.8513 219.249 74.5907 219.336 75.2866C214.029 78.2441 209.158 80.6362 204.722 82.463C200.286 84.2897 196.154 85.203 192.326 85.203C188.499 85.203 185.063 84.5941 182.018 83.3763C178.974 82.1585 176.582 80.1578 174.842 77.3743C173.102 74.5037 172.232 70.6328 172.232 65.7616V32.2284H157.619C157.184 32.2284 156.966 31.9675 156.966 31.4456V29.0969C156.966 28.575 157.14 28.0096 157.488 27.4007C157.836 26.7918 158.445 26.4873 159.315 26.4873ZM257.435 30.9236C257.435 33.0983 257.522 34.49 257.696 35.0989C257.87 35.7079 258.218 35.7079 258.74 35.0989C261.698 32.0544 264.525 29.4014 267.221 27.1397C269.918 24.8781 273.049 23.1383 276.616 21.9205C280.182 20.6157 284.575 19.9633 289.794 19.9633C292.752 19.9633 294.709 20.7462 295.666 22.312C296.71 23.8777 297.232 25.313 297.232 26.6178C297.232 28.3575 296.623 30.0103 295.405 31.576C294.274 33.0548 292.839 33.7942 291.099 33.7942C289.794 33.7942 288.62 33.4027 287.576 32.6198C286.619 31.837 285.793 31.0541 285.097 30.2712C284.662 29.7493 283.836 29.1839 282.618 28.575C281.4 27.8791 280.313 27.5311 279.356 27.5311C276.833 27.5311 273.963 28.7924 270.744 31.3151C267.613 33.7507 264.22 37.0126 260.567 41.101C259.61 42.1448 258.827 43.3626 258.218 44.7544C257.696 46.1462 257.435 47.712 257.435 49.4517V67.4578C257.435 70.6763 257.609 72.9815 257.957 74.3732C258.392 75.765 259.175 76.8089 260.306 77.5048C260.741 77.6787 261.785 77.8962 263.437 78.1571C265.09 78.3311 267.004 78.5051 269.179 78.679C271.353 78.853 273.441 79.027 275.442 79.201C277.529 79.2879 279.138 79.3314 280.269 79.3314C280.704 79.6794 280.922 80.4622 280.922 81.68C280.922 82.8979 280.704 83.7242 280.269 84.1592C278.878 84.1592 276.964 84.1157 274.528 84.0287C272.093 84.0287 269.483 83.9852 266.699 83.8982C264.003 83.8982 261.437 83.8982 259.001 83.8982C256.566 83.8982 254.695 83.8982 253.391 83.8982C252.086 83.8982 250.216 83.8982 247.78 83.8982C245.344 83.8982 242.735 83.8982 239.951 83.8982C237.168 83.9852 234.558 84.0287 232.122 84.0287C229.687 84.1157 227.773 84.1592 226.381 84.1592C226.033 83.7242 225.859 82.8979 225.859 81.68C225.859 80.4622 226.033 79.6794 226.381 79.3314C228.208 79.2444 230.383 79.114 232.905 78.94C235.428 78.766 237.733 78.5486 239.821 78.2876C241.908 78.0266 243.17 77.7657 243.605 77.5048C244.561 76.8089 245.214 75.765 245.562 74.3732C245.91 72.8945 246.084 70.5893 246.084 67.4578V35.8818C246.084 33.7072 245.953 32.1414 245.692 31.1846C245.431 30.1407 244.866 29.3579 243.996 28.8359C243.561 28.575 242.43 28.314 240.604 28.0531C238.777 27.7052 236.82 27.4442 234.732 27.2703C232.731 27.0963 231.209 27.0093 230.165 27.0093C230.078 26.5744 229.991 25.9655 229.904 25.1826C229.817 24.3128 229.817 23.7039 229.904 23.3559C234.428 22.747 238.994 22.0946 243.605 21.3987C248.215 20.7029 251.955 20.094 254.826 19.572C255.609 19.572 256.131 19.92 256.392 20.6159C256.74 21.2248 257 22.2251 257.174 23.6169C257.348 24.9217 257.435 27.3572 257.435 30.9236ZM304.06 53.888C304.06 49.2777 304.843 44.9719 306.409 40.9705C307.974 36.8822 310.193 33.2722 313.063 30.1407C316.021 27.0092 319.587 24.5301 323.762 22.7034C328.025 20.8767 332.809 19.9633 338.115 19.9633C344.291 19.9633 349.51 20.9637 353.773 22.9644C358.035 24.8781 361.514 27.4442 364.211 30.6626C366.908 33.7942 368.865 37.2736 370.083 41.101C371.3 44.9284 371.909 48.7558 371.909 52.5832C371.909 57.0195 371.083 61.4123 369.43 65.7616C367.777 70.1109 365.124 73.8948 361.471 77.1133C358.774 79.5489 355.425 81.5061 351.424 82.9849C347.51 84.4637 342.986 85.203 337.854 85.203C332.113 85.203 327.111 84.2897 322.849 82.463C318.674 80.6363 315.194 78.2006 312.411 75.1561C309.627 72.1116 307.54 68.7626 306.148 65.1092C304.756 61.3688 304.06 57.6284 304.06 53.888ZM335.506 25.313C330.46 25.313 326.546 26.5308 323.762 28.9664C321.066 31.402 319.196 34.5336 318.152 38.3609C317.108 42.1883 316.586 46.2767 316.586 50.626C316.586 53.4965 316.977 56.628 317.76 60.0205C318.543 63.326 319.848 66.501 321.675 69.5455C323.501 72.59 325.937 75.0691 328.982 76.9828C332.026 78.8965 335.767 79.8534 340.203 79.8534C342.291 79.8534 344.422 79.5489 346.596 78.94C348.858 78.3311 350.946 77.2438 352.859 75.678C354.773 74.0253 356.339 71.7637 357.557 68.8931C358.774 65.9356 359.383 62.1082 359.383 57.4109C359.383 46.7116 357.252 38.7089 352.99 33.4027C348.814 28.0096 342.986 25.313 335.506 25.313ZM426.58 27.9226L436.627 59.7596C437.323 62.1952 437.801 63.239 438.062 62.8911C438.41 62.5431 438.845 61.2818 439.367 59.1071L447.979 20.6157C448.762 17.2233 449.11 14.7442 449.023 13.1784C448.936 11.5257 448.109 10.3949 446.543 9.78596C444.978 9.17706 442.281 8.74212 438.454 8.48116C438.106 7.95927 437.932 7.1764 437.932 6.13254C437.932 5.00172 438.106 4.17534 438.454 3.65342C440.889 3.74039 443.368 3.82737 445.891 3.91434C448.414 3.91434 450.893 3.91434 453.328 3.91434C455.677 3.91434 457.373 3.91434 458.417 3.91434C459.461 3.82737 460.809 3.74039 462.462 3.65342C462.897 4.17531 463.114 5.00169 463.114 6.13254C463.114 7.17637 462.897 7.95924 462.462 8.48116C460.635 8.74213 459.2 9.17707 458.156 9.78596C457.199 10.3078 456.416 11.4387 455.807 13.1784C455.199 14.8312 454.459 17.5277 453.589 21.2681L439.759 81.9411C439.498 83.2458 439.063 84.1157 438.454 84.5506C437.932 85.0725 437.366 85.3335 436.757 85.3335C435.714 85.3335 434.844 84.2461 434.148 82.0715L420.187 41.3619L408.313 81.8105C407.965 83.2023 407.443 84.1157 406.747 84.5506C406.138 85.0725 405.529 85.3334 404.921 85.3334C404.312 85.3334 403.659 85.0725 402.963 84.5506C402.267 84.1157 401.789 83.2893 401.528 82.0715L388.219 20.4852C387.436 16.9188 386.784 14.3092 386.262 12.6565C385.74 11.0037 385.044 9.95988 384.174 9.52494C383.391 9.00305 382.13 8.65511 380.39 8.48111C380.042 7.95922 379.868 7.17635 379.868 6.13249C379.868 5.00167 380.042 4.17531 380.39 3.65339C382.13 3.74036 383.87 3.82734 385.61 3.91431C387.349 3.91431 389.437 3.91431 391.873 3.91431C394.221 3.91431 396.657 3.91431 399.179 3.91431C401.789 3.82734 404.312 3.74036 406.747 3.65339C407.182 4.17528 407.4 5.00164 407.4 6.13249C407.4 7.17632 407.182 7.9592 406.747 8.48111C404.051 8.65506 402.137 9.0465 401.006 9.65543C399.875 10.1773 399.31 11.2647 399.31 12.9174C399.31 14.5702 399.658 17.0928 400.354 20.4852L407.53 54.9318C408.313 58.6722 408.922 60.5424 409.357 60.5424C409.879 60.5424 410.662 58.5417 411.705 54.5403L418.229 29.8797L426.58 27.9226ZM505.15 76.7219H504.759L501.105 79.201C498.583 80.7667 496.321 81.9845 494.321 82.8544C492.32 83.7243 490.319 84.3332 488.318 84.6811C486.405 85.0291 484.1 85.203 481.403 85.203C475.401 85.203 470.399 84.0722 466.398 81.8106C462.397 79.4619 460.396 75.5041 460.396 69.9369C460.396 65.0657 462.657 60.8469 467.181 57.2804C471.791 53.627 478.75 51.0174 488.057 49.4517L505.02 46.5811C505.194 46.4942 505.455 46.3202 505.803 46.0592C506.151 45.7113 506.325 45.2763 506.325 44.7544C506.325 39.4483 505.629 35.4034 504.237 32.6198C502.845 29.7493 501.062 27.7921 498.887 26.7483C496.713 25.7044 494.451 25.1825 492.102 25.1825C490.015 25.1825 487.84 25.4 485.578 25.8349C483.404 26.1828 481.533 26.7917 479.968 27.6616C478.489 28.5315 477.75 29.7493 477.75 31.315C477.75 32.7068 477.837 33.6637 478.01 34.1856C478.358 34.8815 478.532 35.7948 478.532 36.9256C478.532 37.7955 477.837 38.7089 476.445 39.6657C475.053 40.6226 473.357 41.101 471.356 41.101C469.703 41.101 468.312 40.7095 467.181 39.9267C466.05 39.0568 465.484 37.752 465.484 36.0123C465.484 34.0116 466.267 32.0979 467.833 30.2712C469.486 28.3575 471.617 26.6178 474.227 25.052C476.923 23.4863 479.924 22.2685 483.23 21.3986C486.622 20.4417 490.015 19.9633 493.407 19.9633C496.452 19.9633 499.453 20.3113 502.41 21.0072C505.455 21.6161 508.151 22.7904 510.5 24.5301C512.849 26.2698 514.675 28.7489 515.98 31.9674C517.285 35.1859 517.763 39.3612 517.415 44.4934L516.502 65.5006C516.328 68.7191 516.806 71.5897 517.937 74.1123C519.068 76.6349 521.243 77.8962 524.461 77.8962C526.201 77.8962 527.332 77.5047 527.854 76.7218C528.463 75.939 529.028 75.5475 529.55 75.5475C529.985 75.5475 530.463 75.852 530.985 76.4609C531.507 76.9828 531.768 77.5047 531.768 78.0266C531.768 78.5485 531.159 79.3749 529.941 80.5058C528.81 81.6366 527.071 82.7239 524.722 83.7677C522.46 84.7246 519.677 85.203 516.371 85.203C513.414 85.203 511.152 84.8116 509.587 84.0287C508.021 83.2458 506.933 82.202 506.325 80.8972C505.803 79.5924 505.411 78.2006 505.15 76.7219ZM506.064 51.2784L490.406 54.2794C484.839 55.3233 480.577 57.1935 477.619 59.89C474.749 62.4996 473.313 65.6311 473.313 69.2845C473.313 70.7633 473.705 72.2856 474.488 73.8513C475.271 75.4171 476.532 76.7219 478.272 77.7657C480.098 78.8095 482.447 79.3315 485.317 79.3315C486.97 79.3315 488.84 78.9835 490.928 78.2876C493.016 77.5917 495.103 76.7654 497.191 75.8085C499.279 74.7647 501.062 73.7643 502.541 72.8075C503.237 72.3726 503.802 71.8507 504.237 71.2417C504.759 70.5459 505.063 69.7195 505.15 68.7626L506.064 51.2784ZM534.334 26.4873H547.252C547.252 19.2675 547.165 14.0483 546.99 10.8298C546.903 7.6113 546.86 5.61062 546.86 4.82774C546.86 4.13185 547.469 3.65343 548.686 3.39247C549.991 3.1315 551.209 2.78354 552.34 2.34863C553.384 1.91371 554.471 1.43529 555.602 0.913355C556.82 0.304454 557.646 0 558.081 0C558.777 0 559.125 0.391431 559.125 1.1743C559.125 1.1743 559.038 2.39213 558.864 4.82774C558.689 7.26336 558.602 10.6123 558.602 14.8746V26.4873H587.308C588.004 26.4873 588.352 26.7483 588.352 27.2701V30.5321C588.352 31.141 588.004 31.576 587.308 31.8369C586.612 32.0979 585.916 32.2284 585.22 32.2284H558.602V59.4986C558.602 64.6308 559.255 68.5016 560.559 71.1112C561.864 73.6338 563.517 75.3301 565.518 76.1999C567.605 77.0698 569.737 77.5047 571.911 77.5047C574.782 77.5047 577.957 76.8958 581.436 75.678C584.916 74.4602 588.439 73.1119 592.005 71.6331C592.701 71.7201 593.223 72.1986 593.571 73.0684C594.006 73.8513 594.266 74.5907 594.354 75.2866C589.047 78.2441 584.176 80.6362 579.74 82.463C575.304 84.2897 571.172 85.203 567.344 85.203C563.517 85.203 560.081 84.5941 557.037 83.3763C553.992 82.1585 551.6 80.1578 549.86 77.3743C548.12 74.5037 547.251 70.6328 547.251 65.7616V32.2284H532.637C532.202 32.2284 531.985 31.9675 531.985 31.4456V29.0969C531.985 28.575 532.159 28.0096 532.506 27.4007C532.854 26.7918 533.464 26.4873 534.334 26.4873ZM602.836 26.4873H615.753C615.753 19.2675 615.666 14.0483 615.492 10.8298C615.405 7.6113 615.361 5.61062 615.361 4.82774C615.361 4.13185 615.97 3.65343 617.188 3.39247C618.493 3.1315 619.711 2.78354 620.841 2.34863C621.885 1.91371 622.973 1.43529 624.103 0.913355C625.321 0.304454 626.148 0 626.583 0C627.278 0 627.626 0.391431 627.626 1.1743C627.626 1.1743 627.539 2.39213 627.365 4.82774C627.191 7.26336 627.104 10.6123 627.104 14.8746V26.4873H655.809C656.505 26.4873 656.853 26.7483 656.853 27.2701V30.5321C656.853 31.141 656.505 31.576 655.809 31.8369C655.114 32.0979 654.418 32.2284 653.722 32.2284H627.104V59.4986C627.104 64.6308 627.756 68.5016 629.061 71.1112C630.366 73.6338 632.019 75.3301 634.019 76.1999C636.107 77.0698 638.238 77.5047 640.413 77.5047C643.283 77.5047 646.458 76.8958 649.938 75.678C653.417 74.4602 656.94 73.1119 660.507 71.6331C661.203 71.7201 661.724 72.1986 662.072 73.0684C662.507 73.8513 662.768 74.5907 662.855 75.2866C657.549 78.2441 652.678 80.6362 648.242 82.463C643.805 84.2897 639.673 85.203 635.846 85.203C632.019 85.203 628.583 84.5941 625.538 83.3763C622.494 82.1585 620.102 80.1578 618.362 77.3743C616.622 74.5037 615.752 70.6328 615.752 65.7616V32.2284H601.139C600.704 32.2284 600.486 31.9675 600.486 31.4456V29.0969C600.486 28.575 600.66 28.0096 601.008 27.4007C601.356 26.7918 601.966 26.4873 602.836 26.4873Z"
    fill="#A85822" />
</svg>