<svg width="235" height="246" viewBox="0 0 235 246" fill="none" xmlns="http://www.w3.org/2000/svg">
  <rect x="107" width="128" height="224" fill="#A85822" />
  <path
    d="M180.647 18C177.493 17.9998 174.37 18.6233 171.456 19.835C168.541 21.0467 165.894 22.8227 163.663 25.0618C161.433 27.3008 159.664 29.9591 158.457 32.8846C157.25 35.8101 156.629 38.9455 156.629 42.112C156.633 42.1808 156.637 42.2497 156.642 42.3185C141.457 34.3917 124.606 30.2189 107.491 30.1473C78.9808 30.1508 51.6394 41.5233 31.4812 61.7631C11.3229 82.003 -0.00114934 109.452 1.03553e-07 138.073C-0.00125036 166.695 11.3227 194.144 31.481 214.384C51.6392 234.624 78.9807 245.997 107.491 246C121.61 246.001 135.59 243.209 148.634 237.786C161.678 232.362 173.53 224.412 183.513 214.39C193.496 204.368 201.415 192.47 206.818 179.376C212.22 166.281 215.001 152.247 215 138.073C214.927 111.171 204.849 85.2666 186.74 65.4365C191.873 64.0843 196.416 61.0634 199.658 56.8456C202.9 52.6279 204.66 47.4509 204.661 42.1233C204.661 38.9568 204.04 35.8213 202.833 32.8959C201.626 29.9704 199.857 27.3121 197.627 25.073C195.396 22.834 192.748 21.0579 189.834 19.8463C186.92 18.6347 183.801 17.9998 180.647 18ZM107.496 34.1635C119.597 34.1622 131.579 36.8486 142.759 42.0694C153.939 47.2902 164.097 54.9429 172.654 64.5909C181.211 74.2388 187.999 85.6929 192.631 98.2992C197.262 110.905 199.646 124.417 199.647 138.062C199.646 151.708 197.262 165.219 192.631 177.825C187.999 190.432 181.211 201.886 172.654 211.534C164.097 221.182 153.939 228.835 142.759 234.055C131.579 239.276 119.597 241.963 107.496 241.961C83.0608 241.959 59.627 231.011 42.3491 211.527C25.0712 192.042 15.3642 165.617 15.3632 138.062C15.3642 110.508 25.0712 84.0824 42.3491 64.598C59.627 45.1137 83.0608 34.1662 107.496 34.1635Z"
    fill="#EAE4DC" />
</svg>