<svg width="225" height="225" viewBox="0 0 225 225" fill="none" xmlns="http://www.w3.org/2000/svg">
  <g clip-path="url(#clip0_43_3)">
    <path
      d="M217.644 123.442C218.035 123.482 218.371 123.696 218.651 124.082C218.931 124.468 219.052 124.847 219.014 125.22C218.97 125.648 218.747 125.982 218.346 126.223C217.962 126.485 217.574 126.595 217.183 126.555C216.848 126.521 216.521 126.318 216.202 125.946C215.899 125.596 215.77 125.206 215.814 124.778C215.852 124.406 216.065 124.079 216.451 123.799C216.837 123.519 217.235 123.4 217.644 123.442ZM204.021 125.315C202.066 125.114 200.5 124.794 199.323 124.353C198.145 123.912 197.269 123.38 196.694 122.756C196.097 122.15 195.716 121.471 195.548 120.72C195.379 119.988 195.336 119.221 195.418 118.421C195.487 117.751 195.603 117.076 195.767 116.397C195.912 115.716 196.115 115.21 196.374 114.879C196.614 114.565 196.887 114.377 197.194 114.315C197.483 114.25 197.754 114.269 198.007 114.37C198.258 114.49 198.43 114.649 198.522 114.846C198.661 115.143 198.695 115.456 198.623 115.788C198.551 116.119 198.362 116.41 198.054 116.66C197.544 117.041 197.182 117.361 196.967 117.621C196.751 117.9 196.615 118.3 196.562 118.821C196.518 119.249 196.569 119.668 196.715 120.078C196.861 120.488 197.17 120.868 197.642 121.217C198.114 121.567 198.806 121.873 199.72 122.136C200.65 122.42 201.869 122.639 203.377 122.794L209.436 123.417C209.808 123.455 210.09 123.456 210.282 123.419C210.472 123.401 210.679 123.31 210.903 123.145C211.006 123.061 211.119 122.781 211.243 122.305C211.386 121.83 211.515 121.213 211.631 120.454C211.763 119.715 211.885 118.9 211.995 118.008C212.113 117.964 212.265 117.942 212.453 117.943C212.658 117.964 212.814 117.999 212.922 118.047C212.917 118.461 212.903 118.967 212.879 119.567C212.874 120.168 212.878 120.77 212.891 121.374C212.902 121.996 212.923 122.524 212.954 122.96C212.983 123.227 212.992 123.594 212.981 124.064C212.988 124.553 212.978 125.013 212.953 125.443C212.946 125.875 212.938 126.138 212.928 126.231C212.919 126.324 212.873 126.404 212.791 126.471C212.707 126.556 212.618 126.594 212.525 126.584C212.302 126.561 212.082 126.501 211.866 126.404C211.649 126.325 211.367 126.23 211.021 126.119C210.673 126.027 210.182 125.949 209.55 125.883L204.021 125.315ZM204.242 133.798C205.188 134.098 206.02 134.539 206.738 135.12C207.475 135.707 208.071 136.397 208.526 137.189C208.976 137.999 209.252 138.892 209.355 139.867C209.452 140.86 209.328 141.9 208.983 142.988C208.581 144.254 208.037 145.26 207.349 146.003C206.679 146.753 205.927 147.299 205.091 147.643C204.274 147.992 203.433 148.167 202.569 148.168C201.705 148.168 200.881 148.044 200.096 147.795C199.186 147.507 198.339 147.051 197.555 146.43C196.771 145.808 196.167 145.018 195.745 144.059C195.421 143.348 195.238 142.534 195.195 141.617C195.146 140.718 195.289 139.743 195.623 138.69C195.996 137.513 196.509 136.547 197.161 135.792C197.807 135.054 198.533 134.499 199.338 134.127C200.144 133.754 200.966 133.544 201.806 133.496C202.663 133.454 203.475 133.555 204.242 133.798ZM208.056 142.105C208.384 141.07 208.389 140.189 208.071 139.459C207.747 138.748 207.226 138.161 206.509 137.698C205.793 137.235 204.988 136.862 204.096 136.579C203.508 136.392 202.84 136.269 202.094 136.208C201.365 136.154 200.629 136.215 199.886 136.391C199.143 136.568 198.476 136.906 197.886 137.406C197.295 137.906 196.856 138.61 196.567 139.52C196.431 139.948 196.355 140.405 196.338 140.89C196.316 141.394 196.403 141.892 196.6 142.387C196.814 142.887 197.176 143.355 197.685 143.791C198.213 144.233 198.958 144.607 199.921 144.913C202.115 145.609 203.894 145.693 205.26 145.164C206.637 144.659 207.569 143.639 208.056 142.105ZM205.276 163.067C205.618 163.259 205.841 163.588 205.944 164.054C206.047 164.52 206.007 164.916 205.824 165.242C205.613 165.617 205.276 165.836 204.812 165.897C204.355 165.984 203.956 165.931 203.613 165.738C203.32 165.573 203.1 165.257 202.955 164.789C202.818 164.347 202.854 163.938 203.065 163.563C203.248 163.236 203.573 163.022 204.039 162.919C204.505 162.816 204.917 162.865 205.276 163.067ZM191.192 158.564C190.605 158.234 190.159 158.015 189.854 157.908C189.557 157.827 189.292 157.839 189.061 157.945C188.975 157.983 188.817 158.13 188.587 158.387C188.364 158.67 188.1 159.005 187.797 159.392C187.509 159.789 187.23 160.19 186.959 160.596C186.679 161.018 186.439 161.387 186.239 161.704C186.128 161.749 185.959 161.708 185.73 161.579C185.502 161.451 185.37 161.323 185.334 161.196C185.481 160.935 185.704 160.556 186.005 160.059C186.289 159.554 186.604 159.012 186.951 158.434C187.272 157.863 187.574 157.324 187.858 156.819C188.134 156.329 188.344 155.954 188.491 155.693C188.647 155.416 188.876 155.008 189.179 154.47C189.481 153.931 189.807 153.352 190.155 152.732C190.478 152.12 190.791 151.544 191.093 151.006C191.371 150.475 191.582 150.079 191.729 149.818C191.847 149.798 192.021 149.853 192.249 149.981C192.477 150.109 192.606 150.225 192.634 150.327C192.486 150.629 192.299 151.018 192.075 151.493C191.851 151.968 191.635 152.448 191.427 152.932C191.227 153.442 191.059 153.874 190.925 154.228C190.798 154.607 190.74 154.843 190.752 154.936C190.782 155.188 190.922 155.417 191.171 155.622C191.412 155.843 191.818 156.114 192.389 156.435L198.017 159.598C198.343 159.782 198.605 159.907 198.803 159.976C199 160.044 199.205 160.062 199.416 160.03C199.61 159.99 199.874 159.73 200.207 159.252C200.531 158.79 201.032 157.976 201.708 156.811C201.834 156.817 201.982 156.858 202.155 156.933C202.334 157.034 202.464 157.128 202.543 157.216C202.358 157.584 202.143 158.043 201.898 158.592C201.654 159.142 201.418 159.696 201.189 160.255C200.952 160.83 200.761 161.323 200.615 161.735C200.481 162.089 200.359 162.439 200.25 162.785C200.141 163.132 200.05 163.371 199.976 163.501C199.931 163.583 199.857 163.638 199.755 163.666C199.644 163.711 199.547 163.711 199.466 163.665C199.27 163.555 199.093 163.412 198.934 163.237C198.765 163.078 198.545 162.879 198.271 162.639C197.989 162.416 197.57 162.149 197.016 161.837L191.192 158.564ZM188.622 174.796C188.776 176.072 188.728 177.209 188.478 178.207C188.216 179.22 187.716 180.15 186.978 180.996C186.658 181.363 186.306 181.639 185.921 181.825C185.523 182.024 185.126 182.124 184.728 182.125C184.172 182.137 183.609 181.957 183.04 181.585C182.484 181.225 181.918 180.793 181.339 180.289L177.192 176.674C176.614 176.17 176.16 175.836 175.83 175.673C175.503 175.537 175.198 175.544 174.917 175.696C174.637 175.875 174.28 176.184 173.846 176.625C173.741 176.632 173.589 176.55 173.392 176.378C173.194 176.206 173.085 176.061 173.063 175.943C173.471 175.504 173.86 175.086 174.231 174.689C174.587 174.28 174.956 173.857 175.337 173.419C175.706 172.996 176.026 172.629 176.296 172.319C176.54 172.01 176.852 171.624 177.231 171.161C177.351 171.166 177.51 171.254 177.707 171.426C177.905 171.599 178.007 171.737 178.014 171.843C177.737 172.247 177.554 172.571 177.464 172.816C177.363 173.075 177.414 173.343 177.619 173.621C177.826 173.925 178.218 174.329 178.796 174.833L183.007 178.503C183.332 178.786 183.653 179.029 183.972 179.233C184.291 179.436 184.605 179.561 184.913 179.606C185.262 179.661 185.593 179.652 185.906 179.578C186.219 179.503 186.468 179.36 186.652 179.148C187.218 178.5 187.563 177.733 187.688 176.849C187.827 175.978 187.878 175.165 187.839 174.412C187.814 174.241 187.768 174.052 187.701 173.844C187.635 173.663 187.49 173.474 187.264 173.277L183.223 169.755C182.644 169.251 182.196 168.91 181.879 168.733C181.564 168.582 181.291 168.568 181.061 168.69C180.83 168.812 180.54 169.031 180.191 169.346C180.073 169.368 179.915 169.292 179.717 169.12C179.52 168.948 179.417 168.796 179.408 168.664C179.803 168.239 180.143 167.877 180.427 167.579C180.698 167.269 181.011 166.909 181.368 166.5C181.761 166.049 182.143 165.612 182.511 165.188C182.866 164.753 183.227 164.31 183.594 163.861C183.714 163.866 183.872 163.954 184.07 164.126C184.267 164.299 184.37 164.437 184.377 164.543C183.989 165.074 183.726 165.49 183.587 165.791C183.463 166.104 183.497 166.407 183.689 166.699C183.869 167.005 184.249 167.41 184.827 167.914L189.948 172.377C190.357 172.734 190.684 172.957 190.929 173.046C191.188 173.148 191.438 173.13 191.681 172.994C191.924 172.858 192.225 172.612 192.585 172.256C192.668 172.303 192.779 172.375 192.918 172.472C193.072 172.581 193.171 172.667 193.215 172.73C192.674 173.55 192.269 174.214 191.999 174.723C191.716 175.247 191.502 175.706 191.357 176.1C191.283 176.185 191.213 176.223 191.146 176.214C191.093 176.218 191.033 176.215 190.966 176.206C190.804 176.165 190.563 176.029 190.242 175.799C189.921 175.569 189.437 175.171 188.788 174.605C188.647 174.482 188.579 174.46 188.584 174.54C188.591 174.645 188.604 174.73 188.622 174.796ZM157.403 200.031C157.036 201.262 156.539 202.286 155.913 203.103C155.269 203.927 154.44 204.581 153.426 205.063C152.987 205.273 152.554 205.386 152.127 205.402C151.682 205.427 151.278 205.361 150.913 205.203C150.398 204.992 149.953 204.603 149.579 204.035C149.213 203.484 148.865 202.862 148.536 202.169L146.171 197.201C145.842 196.509 145.558 196.022 145.321 195.741C145.075 195.485 144.792 195.371 144.474 195.398C144.146 195.451 143.696 195.592 143.122 195.824C143.022 195.789 142.916 195.653 142.803 195.416C142.691 195.18 142.648 195.003 142.676 194.886C143.224 194.646 143.748 194.417 144.246 194.201C144.736 193.968 145.243 193.727 145.766 193.477C146.273 193.236 146.713 193.027 147.084 192.85C147.431 192.664 147.871 192.434 148.403 192.16C148.511 192.212 148.621 192.357 148.734 192.593C148.847 192.83 148.885 192.998 148.85 193.098C148.435 193.357 148.137 193.582 147.958 193.771C147.761 193.968 147.702 194.235 147.779 194.571C147.847 194.932 148.046 195.459 148.376 196.152L150.777 201.195C150.962 201.584 151.16 201.935 151.372 202.249C151.583 202.563 151.821 202.802 152.086 202.966C152.384 203.156 152.691 203.279 153.008 203.335C153.325 203.392 153.61 203.36 153.863 203.239C154.641 202.869 155.263 202.304 155.729 201.543C156.204 200.798 156.574 200.073 156.839 199.367C156.884 199.2 156.917 199.008 156.938 198.791C156.95 198.599 156.892 198.368 156.763 198.097L154.459 193.257C154.129 192.564 153.854 192.073 153.634 191.784C153.404 191.52 153.16 191.398 152.9 191.419C152.64 191.439 152.287 191.524 151.84 191.674C151.724 191.647 151.609 191.515 151.496 191.278C151.384 191.042 151.35 190.861 151.394 190.736C151.926 190.504 152.382 190.308 152.761 190.148C153.133 189.971 153.564 189.766 154.054 189.533C154.595 189.275 155.118 189.026 155.625 188.785C156.124 188.526 156.631 188.264 157.147 187.998C157.255 188.05 157.365 188.195 157.478 188.431C157.59 188.668 157.629 188.836 157.593 188.936C157.026 189.268 156.619 189.545 156.372 189.766C156.133 190.004 156.044 190.295 156.104 190.639C156.147 190.992 156.334 191.514 156.664 192.207L159.583 198.34C159.816 198.83 160.027 199.165 160.216 199.345C160.414 199.541 160.65 199.625 160.927 199.597C161.204 199.569 161.578 199.463 162.051 199.28C162.108 199.356 162.181 199.466 162.27 199.61C162.368 199.771 162.424 199.89 162.439 199.965C161.617 200.502 160.98 200.95 160.53 201.309C160.062 201.677 159.683 202.013 159.393 202.317C159.292 202.365 159.212 202.372 159.154 202.337C159.104 202.32 159.05 202.293 158.992 202.259C158.86 202.156 158.693 201.935 158.49 201.596C158.288 201.257 158.001 200.699 157.631 199.922C157.551 199.753 157.498 199.706 157.471 199.781C157.436 199.881 157.413 199.964 157.403 200.031ZM141.697 202.028C141.932 202.991 141.988 203.931 141.865 204.847C141.747 205.781 141.467 206.649 141.027 207.45C140.569 208.255 139.95 208.955 139.171 209.55C138.373 210.149 137.42 210.584 136.311 210.855C135.02 211.17 133.878 211.227 132.886 211.027C131.897 210.844 131.039 210.485 130.312 209.95C129.588 209.433 129.002 208.806 128.552 208.068C128.102 207.331 127.78 206.562 127.584 205.762C127.358 204.835 127.307 203.875 127.43 202.881C127.554 201.888 127.915 200.962 128.514 200.103C128.954 199.457 129.554 198.877 130.314 198.363C131.057 197.855 131.965 197.469 133.037 197.208C134.237 196.915 135.329 196.85 136.313 197.015C137.279 197.183 138.13 197.515 138.867 198.009C139.604 198.503 140.211 199.097 140.688 199.789C141.17 200.5 141.506 201.246 141.697 202.028ZM136.583 209.604C137.638 209.346 138.394 208.892 138.851 208.241C139.29 207.595 139.521 206.845 139.544 205.992C139.567 205.139 139.468 204.258 139.246 203.349C139.099 202.749 138.858 202.114 138.521 201.445C138.189 200.794 137.754 200.197 137.217 199.654C136.68 199.111 136.045 198.717 135.311 198.473C134.577 198.228 133.746 198.219 132.819 198.445C132.383 198.552 131.953 198.724 131.53 198.962C131.088 199.205 130.707 199.539 130.387 199.964C130.072 200.407 129.86 200.959 129.752 201.621C129.648 202.301 129.716 203.132 129.956 204.114C130.502 206.35 131.355 207.914 132.517 208.805C133.664 209.719 135.02 209.985 136.583 209.604ZM114.563 209.989L112.022 203.926C111.878 203.576 111.779 203.42 111.725 203.459C111.652 203.518 111.574 203.717 111.492 204.057L109.929 210.824C109.866 211.163 109.848 211.463 109.876 211.724C109.904 211.985 110.061 212.186 110.346 212.326C110.632 212.466 111.131 212.542 111.843 212.555C111.921 212.646 111.964 212.822 111.973 213.084C111.983 213.346 111.951 213.515 111.879 213.593C111.429 213.59 110.961 213.587 110.474 213.585C109.988 213.602 109.483 213.619 108.959 213.638C108.455 213.655 108.062 213.669 107.781 213.678C107.483 213.707 107.222 213.735 106.998 213.762C106.902 213.69 106.849 213.523 106.84 213.262C106.831 213 106.872 212.82 106.962 212.724C107.595 212.627 108.01 212.435 108.206 212.147C108.402 211.878 108.573 211.413 108.719 210.753L111.195 200.332C111.243 200.106 111.322 199.953 111.432 199.874C111.541 199.777 111.661 199.726 111.792 199.721C112.072 199.712 112.294 199.891 112.456 200.26L115.615 207.116L115.761 207.279L118.517 200.106C118.672 199.689 118.87 199.476 119.113 199.468C119.244 199.463 119.377 199.506 119.511 199.595C119.626 199.666 119.715 199.803 119.778 200.007L122.974 210.4C123.123 210.919 123.258 211.289 123.378 211.509C123.479 211.731 123.615 211.876 123.786 211.945C123.958 212.032 124.203 212.089 124.522 212.116C124.6 212.207 124.644 212.383 124.653 212.645C124.662 212.907 124.63 213.076 124.558 213.154C124.258 213.145 123.902 213.139 123.49 213.134C123.079 213.149 122.611 213.165 122.088 213.183C121.583 213.2 121.087 213.218 120.601 213.234C120.115 213.27 119.639 213.305 119.172 213.34C119.076 213.269 119.024 213.102 119.015 212.84C119.005 212.578 119.046 212.399 119.136 212.302C119.808 212.242 120.244 212.105 120.442 211.892C120.623 211.698 120.597 211.231 120.366 210.49L118.65 204.736C118.501 204.217 118.379 203.959 118.286 203.962C118.193 203.984 118.044 204.27 117.838 204.82L115.985 209.715L114.563 209.989ZM94.6473 216.986C94.3154 216.929 94.018 216.726 93.7552 216.377C93.474 216.025 93.3983 215.47 93.5283 214.714C93.6297 214.124 93.7617 213.577 93.9242 213.074C94.0867 212.57 94.2724 212.042 94.4814 211.489C94.6718 210.933 94.8813 210.267 95.1098 209.489C95.551 208.027 95.8614 206.885 96.0409 206.061C96.202 205.234 96.3184 204.723 96.3902 204.526C96.434 204.382 96.493 204.259 96.5674 204.158C96.6233 204.054 96.725 204.014 96.8725 204.039C97.0016 204.062 97.0875 204.114 97.1302 204.198C97.1696 204.299 97.1923 204.389 97.198 204.466C97.1817 204.672 97.1444 205.054 97.0861 205.614C97.0279 206.174 96.9738 206.819 96.924 207.551C96.8525 208.299 96.7919 209.038 96.742 209.77C96.6763 210.594 96.6512 211.292 96.6668 211.865C96.6639 212.434 96.6565 212.974 96.6446 213.484C96.6328 213.995 96.5715 214.573 96.4604 215.218C96.3305 215.974 96.0834 216.473 95.7191 216.714C95.3365 216.952 94.9793 217.043 94.6473 216.986ZM99.2256 200.457C99.1496 200.899 98.917 201.258 98.528 201.533C98.139 201.808 97.714 201.906 97.2529 201.826C96.7919 201.747 96.4239 201.513 96.149 201.124C95.8741 200.735 95.7747 200.319 95.8507 199.877C95.9268 199.434 96.1594 199.075 96.5484 198.8C96.9374 198.525 97.3624 198.428 97.8235 198.507C98.2845 198.586 98.6525 198.82 98.9274 199.209C99.2023 199.598 99.3017 200.014 99.2256 200.457Z"
      fill="#35251A" />
    <path
      d="M49.9184 197.944C49.6882 198.262 49.3358 198.446 48.8613 198.495C48.3868 198.545 47.9979 198.46 47.6946 198.241C47.3459 197.989 47.1674 197.629 47.1592 197.161C47.1249 196.697 47.2229 196.306 47.4531 195.988C47.6505 195.715 47.9898 195.533 48.471 195.442C48.9262 195.356 49.3281 195.439 49.6769 195.691C49.9802 195.91 50.1566 196.257 50.206 196.731C50.2555 197.206 50.1596 197.61 49.9184 197.944ZM55.1082 185.209C56.2594 183.617 57.3202 182.421 58.2906 181.622C59.2611 180.822 60.1602 180.329 60.9879 180.143C61.8113 179.93 62.5901 179.939 63.324 180.169C64.0428 180.389 64.7282 180.734 65.3802 181.206C65.9261 181.6 66.4522 182.038 66.9585 182.52C67.4757 182.986 67.8125 183.414 67.9691 183.805C68.1214 184.169 68.1478 184.5 68.0482 184.797C67.9596 185.079 67.8082 185.305 67.594 185.473C67.3647 185.631 67.1413 185.7 66.9239 185.681C66.5978 185.653 66.3092 185.526 66.0582 185.298C65.8072 185.07 65.6501 184.76 65.5871 184.369C65.5125 183.737 65.4162 183.264 65.2984 182.947C65.1654 182.62 64.8866 182.303 64.462 181.996C64.1133 181.744 63.7248 181.579 63.2967 181.5C62.8687 181.422 62.3853 181.499 61.8466 181.733C61.308 181.967 60.6963 182.414 60.0117 183.074C59.3009 183.737 58.5014 184.683 57.6133 185.912L54.0446 190.848C53.8253 191.151 53.6836 191.395 53.6194 191.579C53.5402 191.753 53.516 191.978 53.547 192.254C53.568 192.385 53.7537 192.623 54.1041 192.969C54.4436 193.33 54.9132 193.75 55.513 194.23C56.0867 194.714 56.732 195.227 57.4489 195.768C57.4286 195.892 57.3712 196.035 57.2767 196.198C57.1561 196.365 57.0478 196.483 56.9516 196.552C56.5961 196.341 56.1648 196.075 55.6576 195.755C55.1394 195.449 54.6158 195.152 54.0866 194.861C53.5424 194.56 53.0739 194.314 52.6813 194.122C52.4361 194.014 52.113 193.839 51.7119 193.595C51.2847 193.355 50.8912 193.117 50.5315 192.88C50.1608 192.658 49.9376 192.52 49.8617 192.465C49.7859 192.41 49.7396 192.331 49.7228 192.226C49.6908 192.111 49.7023 192.015 49.7571 191.939C49.8887 191.757 50.0506 191.597 50.2428 191.459C50.4198 191.31 50.6428 191.113 50.9118 190.869C51.1656 190.614 51.4789 190.228 51.8517 189.713L55.1082 185.209ZM47.651 181.159C46.9185 181.828 46.1209 182.328 45.2582 182.66C44.3816 183.004 43.4863 183.175 42.5725 183.173C41.646 183.158 40.7349 182.951 39.8391 182.552C38.9306 182.14 38.0916 181.513 37.322 180.67C36.4261 179.689 35.828 178.714 35.5276 177.747C35.2134 176.792 35.1164 175.867 35.2366 174.972C35.3429 174.09 35.6118 173.274 36.0432 172.525C36.4746 171.777 36.9943 171.125 37.6024 170.57C38.3071 169.926 39.1249 169.42 40.0555 169.052C40.9862 168.684 41.9722 168.556 43.0134 168.67C43.7915 168.745 44.5881 168.993 45.4034 169.414C46.2061 169.822 46.9797 170.433 47.7241 171.248C48.5568 172.16 49.1372 173.088 49.4652 174.03C49.7806 174.958 49.8984 175.864 49.8185 176.748C49.7386 177.632 49.5093 178.449 49.1308 179.2C48.7385 179.964 48.2452 180.617 47.651 181.159ZM38.5503 180.308C39.2821 181.11 40.0433 181.555 40.834 181.644C41.6121 181.719 42.3808 181.562 43.1403 181.173C43.8997 180.783 44.6249 180.273 45.3158 179.643C45.7719 179.226 46.2126 178.71 46.638 178.093C47.0496 177.489 47.3647 176.822 47.5834 176.09C47.8021 175.358 47.8427 174.612 47.7051 173.85C47.5675 173.089 47.177 172.356 46.5335 171.651C46.2307 171.32 45.8732 171.025 45.4611 170.768C45.0363 170.497 44.5608 170.323 44.0344 170.246C43.4943 170.182 42.9079 170.261 42.2752 170.484C41.6287 170.72 40.9324 171.178 40.1862 171.859C38.4864 173.411 37.5242 174.911 37.2995 176.357C37.0483 177.803 37.4653 179.12 38.5503 180.308ZM21.7871 167.42C21.449 167.62 21.0525 167.649 20.5976 167.505C20.1426 167.362 19.8198 167.129 19.6289 166.807C19.4094 166.437 19.3891 166.035 19.5679 165.603C19.721 165.164 19.9666 164.845 20.3046 164.644C20.5944 164.472 20.978 164.441 21.4556 164.549C21.9076 164.651 22.2433 164.887 22.4628 165.257C22.6536 165.579 22.6773 165.968 22.5336 166.423C22.39 166.878 22.1412 167.21 21.7871 167.42ZM32.7284 157.475C33.3079 157.131 33.7201 156.854 33.9652 156.644C34.1845 156.427 34.3061 156.191 34.3299 155.938C34.34 155.845 34.2914 155.634 34.184 155.307C34.051 154.972 33.8926 154.577 33.7089 154.12C33.5091 153.673 33.3012 153.23 33.0853 152.793C32.8599 152.339 32.6598 151.947 32.485 151.615C32.5017 151.496 32.6227 151.37 32.848 151.237C33.0734 151.103 33.2502 151.053 33.3784 151.085C33.531 151.343 33.7472 151.726 34.027 152.235C34.3228 152.734 34.6344 153.278 34.9618 153.867C35.2958 154.43 35.6107 154.961 35.9066 155.46C36.1928 155.943 36.4123 156.313 36.565 156.571C36.7272 156.844 36.9658 157.247 37.2807 157.778C37.5956 158.309 37.9343 158.881 38.297 159.492C38.6661 160.078 39.0082 160.637 39.3231 161.168C39.6445 161.674 39.8816 162.055 40.0343 162.313C39.992 162.425 39.8582 162.548 39.6328 162.681C39.4074 162.815 39.2435 162.869 39.1409 162.842C38.9531 162.562 38.7094 162.206 38.4101 161.775C38.1107 161.343 37.8032 160.916 37.4878 160.494C37.1466 160.065 36.8565 159.704 36.6174 159.411C36.3526 159.111 36.177 158.944 36.0905 158.908C35.8568 158.807 35.5888 158.814 35.2865 158.928C34.9747 159.025 34.5371 159.241 33.9737 159.575L28.4205 162.867C28.0985 163.058 27.8586 163.222 27.7006 163.359C27.5426 163.497 27.4246 163.665 27.3465 163.863C27.2846 164.052 27.3774 164.41 27.6249 164.938C27.8629 165.45 28.3173 166.29 28.9883 167.458C28.9204 167.564 28.8108 167.672 28.6593 167.784C28.4822 167.889 28.3358 167.954 28.2202 167.979C27.9942 167.634 27.7043 167.219 27.3507 166.732C26.997 166.246 26.6353 165.764 26.2656 165.287C25.8863 164.794 25.5547 164.382 25.2708 164.049C25.0317 163.756 24.7893 163.476 24.5436 163.208C24.2979 162.94 24.1369 162.742 24.0605 162.613C24.0128 162.533 24.0021 162.441 24.0283 162.339C24.045 162.22 24.0935 162.137 24.174 162.089C24.3672 161.975 24.5794 161.892 24.8107 161.842C25.0325 161.776 25.3154 161.685 25.6594 161.568C25.9939 161.435 26.4347 161.206 26.982 160.881L32.7284 157.475ZM19.9565 147.133C18.7746 146.628 17.8137 146.018 17.0738 145.302C16.3278 144.569 15.7728 143.671 15.4086 142.609C15.2508 142.149 15.1878 141.706 15.2197 141.279C15.2455 140.835 15.3575 140.441 15.5558 140.096C15.8237 139.608 16.2612 139.211 16.8681 138.904C17.4573 138.603 18.1148 138.328 18.8405 138.079L24.0446 136.295C24.7703 136.046 25.2862 135.82 25.5921 135.616C25.8744 135.401 26.02 135.133 26.0291 134.813C26.0144 134.482 25.9247 134.018 25.7598 133.422C25.8063 133.327 25.9534 133.237 26.2013 133.152C26.4491 133.067 26.6294 133.045 26.7422 133.085C26.9187 133.658 27.0861 134.204 27.2444 134.723C27.4204 135.236 27.6025 135.767 27.7906 136.316C27.9727 136.847 28.1305 137.307 28.264 137.697C28.4092 138.062 28.5877 138.526 28.7996 139.086C28.7354 139.187 28.5793 139.28 28.3315 139.365C28.0837 139.45 27.9123 139.469 27.8172 139.423C27.6063 138.981 27.4171 138.66 27.2497 138.46C27.0763 138.243 26.8181 138.153 26.4752 138.191C26.1085 138.218 25.5623 138.356 24.8366 138.605L19.5529 140.417C19.1458 140.556 18.7743 140.713 18.4385 140.888C18.1027 141.062 17.8382 141.272 17.645 141.516C17.4225 141.79 17.2651 142.081 17.173 142.39C17.081 142.698 17.0805 142.985 17.1715 143.251C17.4507 144.065 17.9418 144.747 18.6448 145.297C19.33 145.854 20.0085 146.304 20.6801 146.647C20.8405 146.711 21.0273 146.765 21.2407 146.811C21.4304 146.845 21.6668 146.813 21.95 146.716L27.0214 144.977C27.7471 144.728 28.266 144.511 28.578 144.325C28.8663 144.127 29.0152 143.898 29.0248 143.637C29.0344 143.377 28.9899 143.016 28.8913 142.556C28.9317 142.443 29.0758 142.344 29.3237 142.259C29.5715 142.174 29.7548 142.161 29.8737 142.219C30.0441 142.774 30.1873 143.249 30.3031 143.644C30.4366 144.034 30.5914 144.485 30.7674 144.998C30.9616 145.565 31.1497 146.114 31.3318 146.645C31.5316 147.17 31.7344 147.703 31.9402 148.246C31.876 148.347 31.72 148.44 31.4722 148.525C31.2244 148.61 31.0529 148.629 30.9578 148.583C30.6923 147.981 30.4637 147.546 30.272 147.275C30.0626 147.01 29.7835 146.889 29.4345 146.909C29.0795 146.912 28.5391 147.038 27.8134 147.287L21.3879 149.49C20.8746 149.666 20.5181 149.838 20.3183 150.005C20.1008 150.179 19.9903 150.405 19.9868 150.683C19.9832 150.961 20.0457 151.345 20.1742 151.835C20.0917 151.883 19.9739 151.943 19.8207 152.016C19.6497 152.094 19.5258 152.137 19.4489 152.143C19.0094 151.265 18.6367 150.582 18.3307 150.093C18.0187 149.587 17.7281 149.172 17.459 148.849C17.4226 148.743 17.4249 148.663 17.4659 148.61C17.4892 148.562 17.5213 148.511 17.5623 148.458C17.6796 148.338 17.918 148.197 18.2776 148.035C18.6372 147.872 19.2241 147.651 20.0384 147.371C20.2154 147.311 20.2682 147.263 20.1969 147.228C20.1018 147.182 20.0218 147.15 19.9565 147.133ZM13.7114 107.479C12.8283 106.546 12.1899 105.603 11.7962 104.652C11.4041 103.682 11.2525 102.638 11.3414 101.519C11.38 101.034 11.4988 100.602 11.6978 100.223C11.8983 99.8265 12.1582 99.5092 12.4774 99.2718C12.9175 98.9314 13.477 98.7412 14.1559 98.7013C14.8162 98.66 15.5287 98.6697 16.2935 98.7305L21.7777 99.1665C22.5425 99.2273 23.1058 99.2252 23.4676 99.1601C23.8123 99.0749 24.0525 98.8875 24.1881 98.5979C24.3066 98.2882 24.4089 97.8271 24.4952 97.2145C24.5757 97.1458 24.7466 97.1218 25.0078 97.1426C25.2689 97.1634 25.4431 97.2148 25.5305 97.2968C25.4644 97.8922 25.4005 98.4597 25.3388 98.9991C25.2958 99.5401 25.2513 100.1 25.2053 100.678C25.1608 101.238 25.1223 101.723 25.0897 102.133C25.0772 102.526 25.0565 103.022 25.0277 103.62C24.9285 103.688 24.7483 103.711 24.4872 103.69C24.226 103.669 24.0611 103.619 23.9924 103.538C23.975 103.049 23.9293 102.679 23.8554 102.429C23.7828 102.16 23.5817 101.976 23.2518 101.874C22.9048 101.753 22.3489 101.662 21.5841 101.601L16.016 101.158C15.587 101.124 15.1837 101.12 14.8062 101.146C14.4287 101.173 14.1027 101.259 13.8282 101.407C13.5149 101.569 13.2546 101.774 13.0473 102.02C12.84 102.267 12.7252 102.53 12.703 102.809C12.6348 103.667 12.8135 104.489 13.2392 105.274C13.6462 106.057 14.0893 106.74 14.5686 107.322C14.6903 107.444 14.84 107.569 15.0176 107.696C15.178 107.802 15.4075 107.868 15.706 107.891L21.0502 108.316C21.815 108.377 22.3776 108.384 22.738 108.338C23.0811 108.271 23.309 108.12 23.4215 107.885C23.5341 107.65 23.6369 107.302 23.7299 106.84C23.8119 106.752 23.9835 106.719 24.2447 106.74C24.5058 106.761 24.6793 106.821 24.7652 106.922C24.7006 107.499 24.6426 107.992 24.5913 108.401C24.5587 108.811 24.5209 109.287 24.4779 109.828C24.4304 110.424 24.3844 111.003 24.34 111.562C24.3141 112.123 24.2875 112.694 24.2602 113.274C24.161 113.341 23.9808 113.364 23.7197 113.343C23.4585 113.322 23.2936 113.272 23.2249 113.191C23.2209 112.534 23.1848 112.043 23.1168 111.718C23.0301 111.392 22.8225 111.169 22.4942 111.05C22.1673 110.911 21.6215 110.811 20.8567 110.75L14.0854 110.212C13.5445 110.169 13.149 110.185 12.8991 110.259C12.6306 110.331 12.4393 110.494 12.3253 110.748C12.2112 111.002 12.1155 111.379 12.0382 111.879C11.9434 111.891 11.8114 111.899 11.642 111.904C11.454 111.908 11.3234 111.898 11.2503 111.873C11.1968 110.893 11.1271 110.118 11.041 109.548C10.9564 108.959 10.855 108.463 10.737 108.059C10.7459 107.947 10.7797 107.875 10.8386 107.842C10.8789 107.808 10.9285 107.774 10.9874 107.741C11.1426 107.679 11.4175 107.644 11.8122 107.638C12.2069 107.632 12.8333 107.663 13.6913 107.731C13.8779 107.746 13.9454 107.723 13.8939 107.663C13.8252 107.582 13.7644 107.521 13.7114 107.479ZM19.8349 92.8786C18.883 92.6006 18.041 92.1793 17.3092 91.6146C16.5594 91.0447 15.9478 90.369 15.4743 89.5874C15.006 88.7878 14.7092 87.9018 14.5838 86.9295C14.4637 85.9392 14.5636 84.8962 14.8836 83.8005C15.2561 82.5252 15.7774 81.5078 16.4476 80.7483C17.0998 79.9836 17.8396 79.4199 18.6668 79.0572C19.476 78.6892 20.3126 78.4949 21.1763 78.4743C22.0401 78.4536 22.8672 78.5588 23.6575 78.7896C24.5735 79.0571 25.4308 79.4927 26.2292 80.0963C27.0276 80.6999 27.649 81.4759 28.0932 82.4244C28.4335 83.1281 28.6357 83.9377 28.6998 84.8532C28.769 85.7506 28.6489 86.7292 28.3394 87.789C27.9931 88.9745 27.5029 89.9522 26.8686 90.7222C26.2396 91.4742 25.5268 92.0458 24.7303 92.437C23.9337 92.8281 23.1163 93.0572 22.2779 93.1243C21.4216 93.1861 20.6073 93.1042 19.8349 92.8786ZM15.8309 84.662C15.5266 85.7038 15.542 86.5855 15.8771 87.3072C16.2174 88.0109 16.7512 88.586 17.4786 89.0324C18.206 89.4787 19.0187 89.8331 19.9168 90.0954C20.5095 90.2685 21.1798 90.3765 21.9275 90.4195C22.6573 90.4572 23.3916 90.3792 24.1304 90.1856C24.8693 89.992 25.5281 89.6386 26.1069 89.1254C26.6856 88.6121 27.1088 87.8975 27.3764 86.9814C27.5023 86.5503 27.568 86.0919 27.5734 85.6061C27.5841 85.1024 27.4855 84.6057 27.2776 84.1161C27.0517 83.6213 26.6791 83.1616 26.1598 82.737C25.6226 82.3072 24.869 81.9506 23.899 81.6673C21.6897 81.022 19.9086 80.9794 18.5559 81.5396C17.1904 82.0765 16.2821 83.1173 15.8309 84.662ZM26.5076 65.3988L33.0286 66.2295C33.404 66.2809 33.5884 66.273 33.5817 66.2059C33.5673 66.1134 33.4334 65.9468 33.18 65.706L28.1016 60.969C27.8394 60.7447 27.5882 60.5793 27.3482 60.4727C27.1081 60.3662 26.8561 60.4016 26.5921 60.5791C26.3281 60.7566 26.0125 61.1504 25.6455 61.7606C25.5277 61.7827 25.3532 61.7322 25.122 61.6092C24.8907 61.4861 24.7596 61.3739 24.7287 61.2727C24.9561 60.885 25.1924 60.4808 25.4375 60.0602C25.6661 59.6307 25.9034 59.1847 26.1495 58.7221C26.3869 58.2761 26.5715 57.9292 26.7033 57.6814C26.8274 57.4083 26.9339 57.1682 27.0229 56.9612C27.1329 56.9137 27.3036 56.9515 27.5348 57.0746C27.7661 57.1977 27.9011 57.3225 27.9397 57.449C27.707 58.0458 27.6661 58.501 27.8172 58.8146C27.9518 59.1194 28.2686 59.4999 28.7677 59.9562L36.5548 67.3109C36.7267 67.466 36.8193 67.6106 36.8326 67.7449C36.8625 67.888 36.8466 68.0174 36.7851 68.133C36.6533 68.3808 36.387 68.4829 35.9863 68.4392L28.4698 67.7464L28.2552 67.7912L33.0888 73.7652C33.3731 74.1072 33.4581 74.3856 33.3438 74.6004C33.2824 74.7161 33.1796 74.8097 33.0354 74.8813C32.9165 74.9453 32.7531 74.9537 32.545 74.9066L21.9459 72.4782C21.4218 72.3477 21.0343 72.2793 20.7833 72.2729C20.5411 72.25 20.3475 72.2953 20.2023 72.4089C20.0406 72.5136 19.8685 72.6976 19.686 72.9609C19.5683 72.983 19.3937 72.9325 19.1625 72.8094C18.9312 72.6864 18.8001 72.5742 18.7692 72.473C18.9264 72.2175 19.1099 71.9124 19.3198 71.5578C19.5132 71.1944 19.733 70.7814 19.979 70.3188C20.2164 69.8728 20.4493 69.435 20.6778 69.0055C20.8898 68.5672 21.0974 68.1372 21.3007 67.7154C21.4107 67.6679 21.5813 67.7058 21.8126 67.8288C22.0439 67.9519 22.1788 68.0767 22.2175 68.2032C21.9341 68.8155 21.8349 69.2608 21.9199 69.5393C21.9972 69.7924 22.4146 70.0038 23.1721 70.1737L29.0134 71.5649C29.5375 71.6954 29.8215 71.7193 29.8654 71.6367C29.8929 71.5454 29.7198 71.2731 29.3462 70.8199L26.0335 66.768L26.5076 65.3988ZM30.4059 44.6534C30.6213 44.3944 30.9458 44.2384 31.3795 44.1853C31.825 44.1178 32.3427 44.3293 32.9326 44.8199C33.3929 45.2028 33.8006 45.5906 34.1556 45.9832C34.5105 46.3758 34.8751 46.8007 35.2493 47.258C35.6354 47.7009 36.1079 48.2156 36.6666 48.802C37.7123 49.9152 38.5468 50.7553 39.1703 51.3226C39.8057 51.8755 40.1906 52.2321 40.3249 52.3925C40.428 52.5026 40.5048 52.6152 40.5552 52.7301C40.6176 52.8307 40.6009 52.9385 40.5052 53.0536C40.4214 53.1543 40.3328 53.2023 40.2394 53.1976C40.1315 53.1809 40.0428 53.1558 39.9733 53.1224C39.8031 53.0052 39.4902 52.7815 39.0347 52.4512C38.5792 52.121 38.047 51.7513 37.438 51.3422C36.8267 50.9067 36.2165 50.4844 35.6076 50.0752C34.9268 49.6063 34.3346 49.2355 33.8312 48.9628C33.3398 48.6758 32.876 48.3994 32.4397 48.1338C32.0034 47.8683 31.5335 47.5261 31.03 47.1072C30.4402 46.6166 30.1319 46.1533 30.1051 45.7173C30.0903 45.2669 30.1906 44.9123 30.4059 44.6534ZM42.4314 56.8828C42.0862 56.5957 41.8917 56.2149 41.8482 55.7405C41.8046 55.2662 41.9324 54.8492 42.2316 54.4895C42.5307 54.1299 42.9174 53.9283 43.3918 53.8847C43.8661 53.8411 44.276 53.9629 44.6212 54.2501C44.9665 54.5373 45.1609 54.9181 45.2045 55.3924C45.248 55.8668 45.1202 56.2838 44.8211 56.6434C44.5219 57.0031 44.1352 57.2047 43.6609 57.2483C43.1865 57.2918 42.7767 57.17 42.4314 56.8828Z"
      fill="#35251A" />
    <path
      d="M69.2614 15.4381C69.1007 15.0795 69.1176 14.6823 69.312 14.2467C69.5064 13.811 69.7744 13.5166 70.1159 13.3636C70.5087 13.1877 70.9097 13.2131 71.3188 13.4399C71.7374 13.6419 72.0271 13.9223 72.1877 14.2809C72.3254 14.5883 72.3133 14.973 72.1512 15.4352C71.9986 15.8727 71.726 16.1794 71.3332 16.3553C70.9916 16.5083 70.603 16.4876 70.1674 16.2932C69.7317 16.0988 69.4297 15.8138 69.2614 15.4381ZM77.6952 26.2999C78.4985 28.093 79.0037 29.6096 79.2106 30.8497C79.4176 32.0897 79.395 33.1148 79.1428 33.925C78.9153 34.7445 78.5183 35.4145 77.9518 35.9349C77.4023 36.4476 76.7604 36.8684 76.0261 37.1974C75.4113 37.4728 74.7689 37.7094 74.0988 37.907C73.4363 38.1218 72.897 38.1994 72.4807 38.1398C72.0891 38.0897 71.7895 37.9471 71.5817 37.7122C71.3815 37.4943 71.2621 37.2505 71.2233 36.9808C71.2016 36.7034 71.2531 36.4753 71.378 36.2963C71.5653 36.0279 71.8203 35.8419 72.143 35.7383C72.4657 35.6348 72.8125 35.6537 73.1834 35.7951C73.7674 36.0461 74.2258 36.1995 74.5584 36.2556C74.9082 36.3039 75.3221 36.221 75.8003 36.0068C76.193 35.8308 76.5305 35.5771 76.8126 35.2457C77.0947 34.9143 77.2691 34.4568 77.3358 33.8733C77.4024 33.2898 77.3214 32.5367 77.0925 31.614C76.8731 30.6666 76.4536 29.5013 75.8339 28.118L73.3437 22.5594C73.1907 22.2179 73.0503 21.9732 72.9226 21.8254C72.8119 21.6699 72.6291 21.5365 72.3742 21.4252C72.2505 21.378 71.9514 21.4198 71.4768 21.5504C70.9946 21.6639 70.3957 21.8604 69.6802 22.1399C68.9742 22.3947 68.2075 22.6972 67.3802 23.0473C67.283 22.9678 67.1877 22.8465 67.0941 22.6834C67.0099 22.4956 66.9619 22.3427 66.9502 22.225C67.3106 22.0225 67.7564 21.7818 68.2876 21.5028C68.8111 21.2067 69.3307 20.9021 69.8466 20.5889C70.3795 20.2682 70.8271 19.9857 71.1892 19.7414C71.4054 19.583 71.7192 19.3911 72.1308 19.1656C72.5518 18.9154 72.9549 18.6938 73.34 18.5008C73.7175 18.2907 73.949 18.1666 74.0343 18.1282C74.1197 18.0899 74.2118 18.0897 74.3108 18.1274C74.4267 18.1575 74.5039 18.2152 74.5421 18.3006C74.6339 18.5055 74.6916 18.7257 74.7151 18.9613C74.7557 19.1891 74.8145 19.4806 74.8915 19.8357C74.9856 20.1831 75.1628 20.6471 75.4229 21.2277L77.6952 26.2999ZM84.9308 21.8665C84.7179 20.8979 84.6835 19.9571 84.8277 19.0441C84.9679 18.1128 85.2672 17.2519 85.7257 16.4614C86.2025 15.6668 86.8373 14.9813 87.6302 14.4046C88.4414 13.824 89.4044 13.4112 90.5192 13.1661C91.8168 12.8809 92.9596 12.85 93.9475 13.0736C94.9315 13.2788 95.781 13.6573 96.4962 14.2089C97.2074 14.7423 97.7793 15.383 98.2119 16.1309C98.6445 16.8788 98.9492 17.6549 99.126 18.459C99.3308 19.3911 99.3601 20.3522 99.2137 21.3423C99.0673 22.3325 98.6846 23.25 98.0656 24.095C97.6116 24.7312 96.9983 25.2971 96.2259 25.7926C95.4718 26.284 94.5556 26.6483 93.4773 26.8853C92.271 27.1504 91.178 27.1895 90.1981 27.0025C89.2365 26.8116 88.3929 26.4605 87.6675 25.9494C86.9421 25.4383 86.3488 24.8311 85.8876 24.1278C85.4225 23.4061 85.1035 22.6524 84.9308 21.8665ZM90.218 14.4106C89.158 14.6436 88.3918 15.0802 87.9194 15.7205C87.4653 16.3567 87.217 17.1011 87.1744 17.9534C87.1319 18.8058 87.211 19.6888 87.4119 20.6027C87.5445 21.2058 87.7713 21.8456 88.0925 22.5223C88.4096 23.1806 88.8304 23.7874 89.3548 24.3427C89.8792 24.898 90.5054 25.3064 91.2334 25.5679C91.9615 25.8294 92.7916 25.8577 93.7236 25.6528C94.1623 25.5564 94.596 25.394 95.0248 25.1657C95.4718 24.9333 95.8602 24.6084 96.19 24.1911C96.5158 23.7554 96.7403 23.2079 96.8636 22.5486C96.9829 21.8709 96.934 21.0387 96.7171 20.0518C96.223 17.8038 95.4057 16.2208 94.2651 15.3028C93.1388 14.3625 91.7898 14.0651 90.218 14.4106ZM109.761 6.33738C109.757 5.94444 109.93 5.58686 110.282 5.26467C110.634 4.94248 110.997 4.77925 111.371 4.77493C111.802 4.76995 112.159 4.95295 112.444 5.32395C112.748 5.67601 112.902 6.04852 112.906 6.44145C112.91 6.77825 112.746 7.12635 112.413 7.48575C112.099 7.82622 111.727 7.99894 111.296 8.00389C110.922 8.0082 110.574 7.83445 110.252 7.48261C109.93 7.13076 109.766 6.74903 109.761 6.33738ZM112.903 20.7855C112.911 21.4591 112.945 21.9546 113.005 22.2721C113.083 22.5706 113.226 22.7935 113.434 22.9408C113.509 22.9961 113.716 23.0592 114.053 23.1302C114.41 23.1822 114.831 23.2428 115.319 23.3121C115.806 23.3626 116.293 23.4038 116.78 23.4356C117.285 23.4672 117.725 23.4902 118.1 23.5045C118.194 23.5783 118.243 23.7462 118.246 24.0081C118.249 24.2701 118.204 24.4484 118.112 24.543C117.812 24.5465 117.373 24.5422 116.792 24.5302C116.212 24.5369 115.585 24.5347 114.912 24.5238C114.257 24.5314 113.639 24.5385 113.059 24.5452C112.498 24.5517 112.067 24.5566 111.768 24.5601C111.45 24.5638 110.982 24.5691 110.365 24.5763C109.747 24.5834 109.083 24.5911 108.372 24.5993C107.68 24.6259 107.025 24.6429 106.408 24.65C105.809 24.6756 105.36 24.6901 105.061 24.6936C104.985 24.6009 104.945 24.4236 104.942 24.1616C104.939 23.8997 104.975 23.7308 105.049 23.6551C105.385 23.6325 105.815 23.5995 106.339 23.556C106.862 23.5125 107.386 23.4597 107.909 23.3976C108.451 23.3164 108.908 23.2457 109.282 23.1852C109.674 23.1058 109.907 23.0376 109.981 22.9807C110.185 22.8286 110.314 22.5932 110.366 22.2745C110.437 21.9555 110.469 21.4686 110.462 20.8137L110.387 14.3583C110.383 13.9841 110.361 13.6943 110.321 13.4889C110.281 13.2835 110.195 13.0974 110.062 12.9305C109.929 12.7823 109.573 12.6835 108.992 12.6341C108.43 12.5844 107.475 12.558 106.128 12.5548C106.07 12.4433 106.031 12.294 106.01 12.1071C106.008 11.9012 106.025 11.742 106.061 11.6293C106.472 11.6058 106.977 11.5626 107.575 11.4995C108.173 11.4365 108.771 11.3641 109.369 11.2823C109.986 11.2004 110.509 11.1195 110.938 11.0397C111.312 10.9792 111.676 10.9095 112.031 10.8306C112.385 10.7516 112.638 10.7113 112.787 10.7095C112.881 10.7085 112.965 10.7449 113.041 10.8189C113.136 10.8927 113.183 10.9763 113.184 11.0699C113.187 11.2944 113.152 11.5194 113.08 11.7448C113.026 11.97 112.964 12.2607 112.893 12.6171C112.841 12.9733 112.819 13.4694 112.826 14.1056L112.903 20.7855ZM128.246 14.8958C129.274 14.1246 130.283 13.5975 131.273 13.3145C132.281 13.0352 133.336 13.0033 134.437 13.219C134.915 13.3124 135.33 13.4795 135.684 13.7203C136.055 13.9646 136.341 14.2589 136.54 14.603C136.829 15.0789 136.954 15.6564 136.916 16.3355C136.882 16.9962 136.792 17.703 136.644 18.4559L135.588 23.855C135.44 24.6079 135.378 25.1678 135.402 25.5347C135.447 25.8868 135.606 26.1467 135.878 26.3144C136.173 26.4673 136.619 26.6215 137.218 26.7768C137.277 26.8646 137.281 27.0371 137.231 27.2942C137.181 27.5513 137.11 27.7186 137.018 27.796C136.434 27.6626 135.878 27.5346 135.349 27.412C134.816 27.3078 134.265 27.2 133.696 27.0885C133.145 26.9807 132.668 26.8872 132.264 26.8082C131.875 26.751 131.384 26.6742 130.793 26.5775C130.738 26.4713 130.735 26.2896 130.785 26.0326C130.836 25.7755 130.905 25.6174 130.993 25.5583C131.481 25.5966 131.853 25.5933 132.11 25.5482C132.385 25.5067 132.592 25.3279 132.73 25.0117C132.89 24.6807 133.044 24.1388 133.191 23.3859L134.264 17.9042C134.347 17.4818 134.396 17.0816 134.413 16.7036C134.43 16.3255 134.381 15.9918 134.266 15.7023C134.14 15.3725 133.966 15.0906 133.745 14.8566C133.524 14.6227 133.276 14.4787 133 14.4248C132.156 14.2595 131.319 14.3436 130.491 14.6773C129.667 14.9927 128.938 15.3553 128.305 15.7653C128.169 15.8722 128.029 16.0068 127.883 16.1688C127.758 16.3161 127.667 16.5367 127.61 16.8305L126.58 22.0918C126.433 22.8447 126.362 23.4028 126.367 23.7661C126.394 24.1147 126.518 24.3582 126.739 24.4967C126.959 24.6353 127.294 24.777 127.742 24.922C127.82 25.0134 127.833 25.1876 127.783 25.4448C127.733 25.7019 127.653 25.8674 127.543 25.9412C126.977 25.8114 126.494 25.6978 126.094 25.6004C125.69 25.5213 125.221 25.4296 124.689 25.3254C124.101 25.2104 123.532 25.0989 122.981 24.9911C122.426 24.9016 121.863 24.8104 121.29 24.7173C121.234 24.6111 121.232 24.4294 121.282 24.1724C121.332 23.9153 121.402 23.7572 121.489 23.6981C122.143 23.7688 122.635 23.7888 122.965 23.7581C123.299 23.709 123.544 23.5282 123.7 23.2156C123.875 22.9066 124.036 22.3757 124.184 21.6227L125.488 14.9566C125.593 14.424 125.622 14.0294 125.577 13.7727C125.536 13.4976 125.395 13.289 125.156 13.1469C124.917 13.0047 124.553 12.8668 124.065 12.733C124.064 12.6376 124.071 12.5055 124.085 12.3366C124.103 12.1493 124.128 12.0208 124.161 11.9509C125.141 12.0093 125.919 12.0281 126.495 12.0074C127.089 11.9903 127.594 11.946 128.008 11.8746C128.118 11.8961 128.186 11.9381 128.212 12.0004C128.242 12.0443 128.269 12.0974 128.295 12.1597C128.34 12.321 128.343 12.598 128.304 12.9909C128.266 13.3837 128.164 14.0025 127.998 14.8472C127.962 15.0309 127.977 15.1005 128.043 15.0562C128.131 14.9971 128.198 14.9437 128.246 14.8958ZM165.709 29.3141C166.96 29.0161 168.095 28.9344 169.115 29.0691C170.151 29.2143 171.132 29.6053 172.056 30.2419C172.457 30.5178 172.772 30.8365 173 31.1981C173.243 31.5703 173.388 31.9539 173.434 32.3491C173.509 32.9004 173.394 33.48 173.089 34.0879C172.795 34.6804 172.43 35.2927 171.995 35.9246L168.875 40.456C168.44 41.0879 168.16 41.5768 168.036 41.9227C167.937 42.2638 167.979 42.5655 168.162 42.8278C168.371 43.0852 168.72 43.4044 169.207 43.7855C169.226 43.8895 169.162 44.0495 169.013 44.2653C168.864 44.4811 168.733 44.6062 168.618 44.6409C168.135 44.2859 167.676 43.9468 167.24 43.6237C166.793 43.316 166.33 42.9977 165.852 42.6687C165.39 42.3504 164.989 42.0745 164.65 41.841C164.316 41.6336 163.897 41.3678 163.393 41.0437C163.384 40.9242 163.454 40.7565 163.603 40.5407C163.752 40.325 163.878 40.2075 163.982 40.1883C164.415 40.4179 164.758 40.5632 165.011 40.6241C165.28 40.6956 165.541 40.6138 165.793 40.3788C166.072 40.139 166.429 39.7032 166.864 39.0712L170.031 34.4705C170.275 34.116 170.48 33.7687 170.646 33.4286C170.812 33.0885 170.9 32.7628 170.91 32.4515C170.926 32.0988 170.879 31.7711 170.769 31.4684C170.659 31.1657 170.489 30.9348 170.258 30.7756C169.549 30.2875 168.748 30.0316 167.856 30.0079C166.974 29.9688 166.161 30.0111 165.417 30.135C165.25 30.1792 165.067 30.2465 164.869 30.337C164.696 30.4226 164.525 30.5887 164.355 30.8354L161.315 35.2512C160.88 35.8831 160.593 36.3668 160.453 36.702C160.339 37.0325 160.355 37.3053 160.503 37.5203C160.65 37.7353 160.9 37.9985 161.254 38.3101C161.289 38.4248 161.232 38.59 161.083 38.8058C160.934 39.0216 160.795 39.1415 160.665 39.1655C160.198 38.8212 159.8 38.5246 159.472 38.2757C159.132 38.0422 158.739 37.7716 158.292 37.4639C157.799 37.1244 157.321 36.7954 156.859 36.4771C156.386 36.1742 155.905 35.8659 155.417 35.5524C155.408 35.4329 155.478 35.2653 155.627 35.0495C155.775 34.8337 155.902 34.7162 156.006 34.697C156.577 35.0221 157.02 35.2364 157.335 35.3397C157.661 35.4276 157.958 35.3594 158.226 35.135C158.509 34.9212 158.869 34.4984 159.304 33.8665L163.156 28.2716C163.463 27.8246 163.648 27.4744 163.709 27.221C163.78 26.9521 163.734 26.7049 163.572 26.4793C163.409 26.2537 163.13 25.9822 162.735 25.6648C162.773 25.5772 162.832 25.4587 162.912 25.3094C163.003 25.1446 163.077 25.0367 163.135 24.9857C164.01 25.4296 164.717 25.7568 165.253 25.9672C165.805 26.1883 166.286 26.3485 166.694 26.4481C166.787 26.5118 166.832 26.5773 166.832 26.6447C166.841 26.6968 166.845 26.7565 166.844 26.824C166.821 26.9897 166.714 27.245 166.522 27.5899C166.33 27.9348 165.989 28.4618 165.501 29.1708C165.395 29.3249 165.381 29.3948 165.459 29.3804C165.563 29.3612 165.647 29.3391 165.709 29.3141ZM175.292 41.9175C176.009 41.232 176.795 40.7136 177.65 40.3621C178.518 39.9977 179.409 39.8059 180.323 39.7867C181.249 39.7809 182.165 39.9668 183.07 40.3444C183.987 40.7355 184.841 41.3436 185.63 42.1686C186.548 43.1288 187.168 44.089 187.491 45.0491C187.827 45.9963 187.945 46.9188 187.846 47.8165C187.76 48.7014 187.51 49.523 187.096 50.2813C186.682 51.0397 186.177 51.7034 185.582 52.2724C184.893 52.932 184.087 53.4566 183.165 53.8463C182.243 54.2359 181.26 54.386 180.217 54.2965C179.437 54.2393 178.635 54.0096 177.81 53.6074C176.998 53.2186 176.211 52.6253 175.448 51.8273C174.594 50.9347 173.992 50.0213 173.643 49.087C173.306 48.1663 173.167 47.2632 173.227 46.3778C173.286 45.4924 173.497 44.6699 173.858 43.9103C174.232 43.1378 174.711 42.4736 175.292 41.9175ZM184.41 42.5582C183.66 41.7738 182.889 41.3462 182.096 41.2756C181.316 41.2184 180.551 41.3932 179.801 41.8C179.051 42.2067 178.338 42.7334 177.662 43.38C177.215 43.8068 176.787 44.3332 176.375 44.9593C175.978 45.5724 175.678 46.2473 175.477 46.984C175.275 47.7206 175.251 48.4679 175.407 49.2258C175.562 49.9836 175.969 50.7074 176.628 51.3972C176.939 51.7218 177.303 52.0079 177.721 52.2554C178.152 52.5165 178.631 52.6795 179.159 52.7442C179.701 52.796 180.285 52.7032 180.913 52.4658C181.553 52.2154 182.239 51.7411 182.969 51.0427C184.633 49.452 185.56 47.9309 185.751 46.4793C185.969 45.0283 185.522 43.7213 184.41 42.5582ZM195.754 61.4361L191.774 66.668C191.542 66.9675 191.456 67.1311 191.518 67.1589C191.605 67.1926 191.817 67.16 192.152 67.0609L198.793 65.0314C199.119 64.9165 199.388 64.7817 199.6 64.6271C199.812 64.4725 199.907 64.2365 199.886 63.9191C199.864 63.6017 199.681 63.1316 199.336 62.5086C199.376 62.3956 199.507 62.2697 199.729 62.1309C199.951 61.9921 200.114 61.9347 200.217 61.9585C200.439 62.3493 200.671 62.756 200.912 63.1787C201.17 63.5914 201.438 64.0199 201.715 64.4643C201.983 64.8929 202.191 65.2262 202.34 65.4643C202.514 65.7083 202.669 65.9206 202.804 66.1012C202.79 66.2202 202.672 66.349 202.449 66.4878C202.227 66.6265 202.052 66.681 201.923 66.6512C201.522 66.1512 201.148 65.8883 200.801 65.8623C200.47 65.8265 199.982 65.9106 199.337 66.1147L189.074 69.1811C188.854 69.2525 188.683 69.2603 188.56 69.2047C188.421 69.1591 188.317 69.0807 188.247 68.9696C188.099 68.7315 188.143 68.4499 188.382 68.1246L192.74 61.9616L192.808 61.7533L185.218 62.9524C184.78 63.0276 184.496 62.962 184.367 62.7557C184.298 62.6446 184.268 62.5087 184.278 62.348C184.282 62.2131 184.356 62.0674 184.501 61.9107L191.904 53.9458C192.279 53.5572 192.532 53.2558 192.663 53.0416C192.804 52.8434 192.861 52.653 192.836 52.4705C192.826 52.2781 192.753 52.037 192.616 51.7474C192.656 51.6343 192.787 51.5084 193.009 51.3697C193.231 51.2309 193.394 51.1735 193.497 51.1973C193.639 51.4612 193.812 51.7727 194.014 52.1318C194.232 52.481 194.48 52.8778 194.757 53.3222C195.025 53.7507 195.288 54.1713 195.545 54.584C195.819 54.9867 196.088 55.3816 196.351 55.7684C196.337 55.8874 196.219 56.0163 195.997 56.1551C195.775 56.2939 195.599 56.3483 195.47 56.3185C195.082 55.767 194.746 55.4584 194.462 55.3928C194.204 55.3332 193.812 55.5889 193.287 56.16L189.161 60.5231C188.786 60.9117 188.623 61.1457 188.673 61.2251C188.738 61.2945 189.061 61.2808 189.64 61.1838L194.805 60.3408L195.754 61.4361ZM211.771 75.1849C211.887 75.5009 211.86 75.8599 211.689 76.262C211.525 76.6816 211.083 77.0242 210.363 77.2897C209.802 77.4969 209.262 77.6561 208.744 77.7672C208.227 77.8783 207.677 77.9816 207.094 78.077C206.517 78.1899 205.835 78.3418 205.048 78.5325C203.561 78.8814 202.416 79.1841 201.613 79.4404C200.816 79.7143 200.315 79.8692 200.109 79.9054C199.962 79.9396 199.826 79.9498 199.702 79.936C199.583 79.9398 199.498 79.8714 199.446 79.7309C199.401 79.608 199.404 79.5073 199.455 79.4287C199.523 79.3437 199.589 79.2794 199.653 79.236C199.839 79.1471 200.19 78.988 200.703 78.7587C201.217 78.5293 201.803 78.2532 202.462 77.9304C203.145 77.6187 203.816 77.3015 204.475 76.9787C205.221 76.6235 205.838 76.2962 206.326 75.9965C206.82 75.7145 207.292 75.4509 207.74 75.206C208.188 74.9608 208.719 74.725 209.334 74.4984C210.054 74.2329 210.609 74.1975 211 74.3924C211.397 74.6048 211.654 74.8689 211.771 75.1849ZM195.167 79.4845C195.588 79.3291 196.015 79.3511 196.448 79.5505C196.881 79.75 197.178 80.0692 197.34 80.5081C197.502 80.947 197.483 81.3827 197.283 81.8153C197.084 82.2479 196.774 82.5419 196.352 82.6973C195.931 82.8527 195.504 82.8307 195.071 82.6312C194.639 82.4318 194.341 82.1126 194.18 81.6737C194.018 81.2348 194.036 80.7991 194.236 80.3665C194.435 79.9339 194.746 79.6399 195.167 79.4845Z"
      fill="#35251A" />
    <path
      d="M52.0805 131.366L52.0833 118.866L52.7422 119.737C55.0361 122.768 58.6179 125.315 62.3855 126.594L64.5152 127.317V135.591V143.866H58.2965H52.0778L52.0805 131.366ZM79.9331 132.361C79.9275 116.769 79.707 115.041 77.4355 112.746C76.0831 111.379 74.3715 110.724 71.9176 110.633C68.6927 110.513 67.9994 109.357 67.808 103.78L67.6829 100.136L69.8594 99.9549C73.6882 99.6359 77.984 100.195 81.3019 101.444C86.6244 103.447 89.7627 106.976 91.3225 112.713L91.9812 115.135L92.0683 129.5L92.1555 143.866H86.0465H79.9375L79.9331 132.361ZM117.25 143.135C110.361 141.68 105.927 137.997 103.944 132.082C102.653 128.233 102.584 126.741 102.578 102.76L102.573 80.6837H108.907H115.24L115.314 103.258C115.389 125.812 115.39 125.833 115.94 127.459C117.56 132.242 123.211 134.169 127.55 131.417L128.677 130.702L129.207 132.496C129.968 135.072 131.56 137.989 133.129 139.685C134.675 141.354 134.672 141.364 132.401 142.219C128.558 143.666 121.719 144.079 117.25 143.135ZM145.856 143.135C138.566 141.596 133.855 137.38 132.203 130.916C131.252 127.198 131.181 125.221 131.18 102.636L131.18 80.6837H137.513H143.846L143.921 103.258C143.995 125.812 143.996 125.833 144.546 127.459C145.687 130.828 148.148 132.548 151.826 132.548C155.504 132.548 157.964 130.828 159.105 127.459C159.656 125.833 159.656 125.812 159.731 103.258L159.805 80.6837H166.139H172.472V102.583C172.472 125.755 172.395 127.678 171.32 131.397C169.476 137.777 164.683 141.829 157.333 143.223C154.449 143.769 148.648 143.725 145.856 143.135ZM68.7738 124.683C60.408 123.713 54.9847 119.506 53.0974 112.523C52.209 109.236 52.0778 106.812 52.0778 93.6873V80.9324H58.2965H64.5152V93.756C64.5152 104.512 64.5781 106.856 64.9055 108.296C65.7588 112.047 68.3747 114.095 72.2904 114.075C75.4144 114.059 76.2643 115.463 76.4114 120.88L76.5134 124.634L74.432 124.796C71.998 124.985 71.2482 124.97 68.7738 124.683ZM91.3998 104.92C89.5624 102.222 85.0788 99.1084 81.3678 97.953L79.9375 97.5077V89.22V80.9324H86.0318H92.1262V93.3698C92.1262 100.21 92.0983 105.806 92.0641 105.805C92.0296 105.805 91.7309 105.406 91.3998 104.92Z"
      fill="#FF3366" />
  </g>
  <defs>
    <clipPath id="clip0_43_3">
      <rect width="224.549" height="224.549" fill="white" />
    </clipPath>
  </defs>
</svg>