<svg width="228" height="49" viewBox="0 0 228 49" fill="none" xmlns="http://www.w3.org/2000/svg">
  <path
    d="M6.43077 31.0494L4.81612 33.8321H0L13.307 10.7916L26.6139 33.8321H21.7978L20.1831 31.0494H6.43077ZM13.307 19.1396L8.83883 26.8755H17.7751L13.307 19.1396Z"
    fill="inherit" />
  <path
    d="M40.4498 14.3534C44.1617 14.3534 46.0176 16.2086 46.0176 19.9188H41.8418C41.8418 18.9912 41.3778 18.5274 40.4498 18.5274H32.0982C31.1702 18.5274 30.7062 18.9912 30.7062 19.9188V20.6145C30.7062 21.542 31.1702 22.0058 32.0982 22.0058H40.4498C44.1617 22.0058 46.0176 23.8609 46.0176 27.5711V28.2668C46.0176 31.977 44.1617 33.8321 40.4498 33.8321H32.0982C28.3863 33.8321 26.5304 31.977 26.5304 28.2668H30.7062C30.7062 29.1943 31.1702 29.6581 32.0982 29.6581H40.4498C41.3778 29.6581 41.8418 29.1943 41.8418 28.2668V27.5711C41.8418 26.6436 41.3778 26.1798 40.4498 26.1798H32.0982C28.3863 26.1798 26.5304 24.3247 26.5304 20.6145V19.9188C26.5304 16.2086 28.3863 14.3534 32.0982 14.3534H40.4498Z"
    fill="inherit" />
  <path d="M59.937 18.5274V33.8321H55.7612V18.5274H48.1055V14.3534H67.5927V18.5274H59.937Z"
    fill="inherit" />
  <path
    d="M70.3766 14.3534H84.296C88.0078 14.3534 89.8637 16.2086 89.8637 19.9188V22.7015C89.8637 26.3653 88.0589 28.2204 84.4491 28.2668L90.0169 33.8321H84.0872L78.5194 28.2668H74.5524V33.8321H70.3766V14.3534ZM74.5524 18.5274V24.0928H84.296C85.2239 24.0928 85.6879 23.629 85.6879 22.7015V19.9188C85.6879 18.9912 85.2239 18.5274 84.296 18.5274H74.5524Z"
    fill="inherit" />
  <path
    d="M106.567 18.5274H98.2154C97.2874 18.5274 96.8234 18.9912 96.8234 19.9188V28.2668C96.8234 29.1943 97.2874 29.6581 98.2154 29.6581H106.567C107.495 29.6581 107.959 29.1943 107.959 28.2668V19.9188C107.959 18.9912 107.495 18.5274 106.567 18.5274ZM98.2154 14.3534H106.567C110.279 14.3534 112.135 16.2086 112.135 19.9188V28.2668C112.135 31.977 110.279 33.8321 106.567 33.8321H98.2154C94.5035 33.8321 92.6476 31.977 92.6476 28.2668V19.9188C92.6476 16.2086 94.5035 14.3534 98.2154 14.3534Z"
    fill="inherit" />
  <path d="M127.446 26.1797H114.919V22.0057H127.446V26.1797Z" fill="inherit" />
  <path
    d="M141.366 37.3939L128.059 14.3534H132.875L141.366 29.0459L143.829 24.7884L137.802 14.3534H142.618L146.237 20.6145L149.842 14.3534H154.673L148.645 24.7884L151.109 29.0459L159.586 14.3534H164.416L151.109 37.3939L146.237 28.9625L141.366 37.3939Z"
    fill="inherit" />
  <path d="M198.073 18.5274V33.8321H193.897V18.5274H186.242V14.3534H205.729V18.5274H198.073Z"
    fill="inherit" />
  <path d="M220.344 18.5274V33.8321H216.169V18.5274H208.513V14.3534H228V18.5274H220.344Z"
    fill="inherit" />
  <path
    d="M184.973 38.3178C184.943 38.3083 184.627 38.0591 184.269 37.7661C183.103 36.8095 182.063 36.1894 180.595 35.5749C180.399 35.4926 180.23 35.4256 180.22 35.4256C180.21 35.4256 180.201 38.3735 180.201 41.9765V48.5274L179.191 48.4971L179.139 35.0366L178.543 34.875C177.029 34.464 175.706 34.3126 173.985 34.3533C172.478 34.389 171.497 34.529 170.165 34.8983L169.66 35.0381L169.609 48.4971L168.599 48.5274V41.9765C168.599 38.3735 168.591 35.4256 168.58 35.4256C168.57 35.4256 168.4 35.4928 168.204 35.5749C166.736 36.1894 165.696 36.8095 164.53 37.7661C164.173 38.0591 163.856 38.3074 163.826 38.3179C163.787 38.3312 163.779 36.7509 163.797 33.0372C163.825 27.4121 163.832 27.2531 164.094 25.7184C164.83 21.4131 167.136 17.6498 170.774 14.8168C171.417 14.3158 172.792 13.3966 173.429 13.0412L173.881 12.789V0.790619H174.917V12.789L175.368 13.0412C175.982 13.3842 177.242 14.2161 177.882 14.7011C179.406 15.8541 180.896 17.3721 181.894 18.7884C183.629 21.2503 184.579 23.8502 184.917 27.0645C184.998 27.8377 185.051 38.3448 184.973 38.3178ZM181.95 25.8398C181.303 21.7523 179.044 18.554 175.127 16.1806L174.565 15.8404L174.251 16.0249C170.835 18.0298 168.552 20.7283 167.595 23.8896C167.421 24.4658 167.294 25.0356 167.171 25.7966C167.085 26.3259 167.079 26.5505 167.063 29.7799L167.046 33.2024L167.448 32.9801C169.271 31.9724 171.183 31.3696 173.202 31.1667C173.813 31.1053 175.311 31.1053 175.921 31.1668C177.996 31.3757 180.119 32.0567 181.848 33.0666L182.077 33.2006L182.06 29.8222C182.043 26.5892 182.041 26.4178 181.95 25.8398Z"
    fill="inherit" />
</svg>