<?xml version="1.0" encoding="UTF-8" standalone="no"?>
<!-- Created with Inkscape (http://www.inkscape.org/) -->

<svg
   width="183.88176mm"
   height="32.182064mm"
   viewBox="0 0 183.88176 32.182064"
   version="1.1"
   id="svg1"
   xml:space="preserve"
   xmlns="http://www.w3.org/2000/svg"
   xmlns:svg="http://www.w3.org/2000/svg"><defs
     id="defs1" /><g
     id="layer1"
     transform="translate(-2.5210569,-117.11601)"><text
       xml:space="preserve"
       style="font-style:normal;font-variant:normal;font-weight:normal;font-stretch:normal;font-size:25.5582px;font-family:'Venite Adoremus Straight';-inkscape-font-specification:'Venite Adoremus Straight';text-align:start;writing-mode:lr-tb;direction:ltr;text-anchor:start;fill:#ffffff;stroke:#000000;stroke-width:0.157227"
       x="3.2985275"
       y="141.75389"
       id="text1"><tspan
         id="tspan1"
         style="font-size:25.5582px;fill:#000000;fill-opacity:1;stroke-width:0.157227"
         x="3.2985275"
         y="141.75389">ASTROW  TT</tspan></text><path
       style="fill:#000000;stroke-width:1.86506"
       d="m 149.70863,145.33818 c -0.0943,0 -0.59824,-0.21053 -1.11973,-0.46783 -1.12283,-0.55403 -2.3619,-1.03839 -2.66097,-1.04022 -0.0617,-3.9e-4 -0.0785,0.58799 -0.0785,2.73372 v 2.73423 h -0.28283 -0.28286 v -2.82608 -2.82609 l -0.2357,-0.061 c -1.95644,-0.50595 -4.98914,-0.50595 -6.94555,0 l -0.23573,0.061 v 2.82609 2.82608 h -0.28283 -0.28285 v -2.73423 c 0,-2.14573 -0.0167,-2.73411 -0.0785,-2.73372 -0.29907,0.002 -1.53814,0.48619 -2.66097,1.04022 -0.52149,0.2573 -1.02536,0.46783 -1.11972,0.46783 h -0.1716 l 0.0265,-5.01274 c 0.0277,-5.25575 0.0352,-5.40801 0.33464,-6.86398 0.45024,-2.18999 1.45388,-4.45974 2.75289,-6.22571 1.1301,-1.53632 2.71717,-3.04261 4.24043,-4.02458 l 0.63094,-0.40674 0.002,-2.84421 0.002,-2.84421 h 0.31428 0.31426 l 0.002,2.84421 0.002,2.84421 0.63095,0.40674 c 1.52326,0.98197 3.11035,2.48826 4.24043,4.02458 1.29901,1.76597 2.30265,4.03572 2.75289,6.22571 0.29935,1.45597 0.30677,1.60823 0.33464,6.86398 l 0.0267,5.01274 z m -2.19275,-10.99547 c -0.51925,-3.27223 -2.04274,-6.08219 -4.52661,-8.18693 -0.31166,-0.26412 -1.34957,-0.99261 -1.41415,-0.99261 -0.0645,0 -1.10248,0.72849 -1.41417,0.99261 -2.48384,2.10474 -4.00736,4.83253 -4.5266,8.10476 -0.0743,0.46839 -0.0879,1.04373 -0.10311,4.35594 -0.0103,2.09897 -0.008,3.81629 0.003,3.81629 0.0118,0 0.24159,-0.10675 0.51122,-0.23722 1.43606,-0.6948 2.8902,-1.10013 4.48668,-1.25057 2.16276,-0.20379 4.47549,0.23631 6.57176,1.25057 0.26964,0.13041 0.4997,0.23722 0.51123,0.23722 0.0119,0 0.0132,-1.71732 0.003,-3.81629 -0.0151,-3.31221 -0.0289,-3.88755 -0.10311,-4.35594 z"
       id="path1" /></g></svg>
