<svg width="34" height="39" viewBox="0 0 34 39" fill="white" xmlns="http://www.w3.org/2000/svg">
  <path
    d="M12.3925 26.1419C12.4504 25.9681 12.762 25.9817 12.8045 26.16C13.0038 26.9969 13.3925 28.2553 14.04 28.9624C14.6877 29.6695 15.907 30.167 16.7231 30.439C16.897 30.497 16.8833 30.8085 16.705 30.851C15.8681 31.0503 14.6099 31.439 13.9028 32.0865C13.1957 32.7342 12.698 33.9535 12.4262 34.7698C12.3682 34.9436 12.0565 34.9298 12.014 34.7515C11.8147 33.9146 11.4261 32.6564 10.7785 31.9493C10.1309 31.2422 8.91161 30.7447 8.09536 30.4727C7.9215 30.4147 7.93521 30.103 8.11347 30.0607C8.95047 29.8612 10.2087 29.4727 10.9159 28.825C11.623 28.1775 12.1205 26.9582 12.3925 26.1419Z"
    fill="inherit" />
  <path
    d="M26.0156 28.3134C26.0523 28.1339 25.766 27.972 25.6312 28.0962C25.2253 28.4697 24.6705 28.9018 24.1503 29.0464C23.6299 29.191 22.9316 29.1066 22.3913 28.9959C22.2118 28.9592 22.05 29.2454 22.1741 29.3804C22.5476 29.7862 22.9797 30.3409 23.1243 30.8613C23.2689 31.3817 23.1845 32.0799 23.0738 32.6202C23.0371 32.7998 23.3233 32.9616 23.4582 32.8374C23.8641 32.4639 24.4188 32.0318 24.9392 31.8872C25.4596 31.7427 26.1576 31.827 26.6981 31.9377C26.8777 31.9744 27.0395 31.6882 26.9153 31.5533C26.5418 31.1474 26.1096 30.5926 25.9651 30.0724C25.8206 29.552 25.9048 28.8537 26.0156 28.3134Z"
    fill="inherit" />
  <path
    d="M25.234 8.12503L24.9864 7.52328C24.0289 5.19722 23.5503 4.03421 22.6372 3.92387C21.7239 3.81346 20.9811 4.82883 19.4954 6.85959L19.111 7.38496C18.6888 7.96201 18.4777 8.25056 18.1823 8.42207C17.8869 8.59357 17.5406 8.62862 16.8482 8.69878L16.2178 8.76263L15.7751 8.80767C13.6319 9.02779 12.5381 9.1871 12.171 10.0008C11.7794 10.8687 12.474 11.9064 13.8631 13.9817L14.2225 14.5186C14.6173 15.1083 14.8147 15.4032 14.878 15.7462C14.9413 16.0891 14.8633 16.4412 14.7074 17.1456L14.5654 17.7867C14.0168 20.2654 13.7424 21.5047 14.4135 22.1514C15.0847 22.7981 16.2569 22.4241 18.6011 21.676L19.2077 21.4824C19.8738 21.2699 20.2069 21.1635 20.5414 21.2041C20.876 21.2445 21.1739 21.4271 21.7701 21.7922L22.3128 22.1247C24.4104 23.4096 25.4593 24.0521 26.2657 23.584C27.0721 23.1158 27.102 21.8471 27.1616 19.3093L27.1771 18.6528C27.194 17.9316 27.2025 17.5711 27.346 17.2531C27.4894 16.9352 27.7515 16.6959 28.2759 16.2173L28.7532 15.7814C30.5984 14.0971 31.521 13.2549 31.3481 12.3187C31.1754 11.3826 30.0217 10.9725 27.7143 10.1522L27.1173 9.93998C26.4617 9.70691 26.1339 9.59039 25.8879 9.35343C25.6422 9.11653 25.5061 8.78602 25.234 8.12503Z"
    fill="inherit" />
  <path
    d="M11.5463 20.3696C7.64187 21.061 4.03244 22.894 2.04959 25.7524C3.00639 17.8633 6.07563 13.4717 9.62487 11.213C9.72054 11.7515 9.9087 12.2285 10.0908 12.6114C10.4693 13.4074 11.0793 14.3181 11.6986 15.2429L12.1443 15.9084C12.2287 16.0348 12.2944 16.133 12.3499 16.2178C12.3278 16.323 12.3008 16.4454 12.2656 16.6043L12.0903 17.3959C11.8537 18.4637 11.6227 19.5063 11.5463 20.3696Z"
    fill="inherit" />
</svg>